<svg width="1090" xmlns="http://www.w3.org/2000/svg" height="1096" id="screenshot-41260768-a118-806d-8006-59478bc6e1b2" viewBox="0 -4 1090 1096" xmlns:xlink="http://www.w3.org/1999/xlink" fill="none" version="1.1"><g id="shape-41260768-a118-806d-8006-59478bc6e1b2"><g class="frame-container-wrapper"><g class="frame-container-blur"><g class="frame-container-shadows"><g fill="none"><g class="fills" id="fills-41260768-a118-806d-8006-59478bc6e1b2"><rect rx="0" ry="0" x="0" y="0" width="1086" height="1092" transform="matrix(1.000000, 0.000000, 0.000000, 1.000000, 0.000000, 0.000000)" class="frame-background"/></g><g class="frame-children"><g id="shape-41260768-a118-806d-8006-594661b59574"><defs><filter id="filter-render-2" x="-0.003703703703703704" y="-0.003703703703703704" width="1.0074074074074073" height="1.0074074074074073" filterUnits="objectBoundingBox" color-interpolation-filters="sRGB"><feFlood flood-opacity="0" result="BackgroundImageFix"/><feBlend mode="normal" in="SourceGraphic" in2="BackgroundImageFix" result="shape"/><feColorMatrix in="SourceAlpha" type="matrix" values="0 0 0 0 0 0 0 0 0 0 0 0 0 0 0 0 0 0 127 0" result="hardAlpha"/><feMorphology radius="5" operator="erode" in="SourceAlpha" result="filter_41260768-a118-806d-8006-5946e2025809"/><feOffset dx="-5" dy="-5"/><feGaussianBlur stdDeviation="2"/><feComposite in2="hardAlpha" operator="arithmetic" k2="-1" k3="1"/><feColorMatrix type="matrix" values="0 0 0 0 0 0 0 0 0 0 0 0 0 0 0 0 0 0 0.2 0"/><feBlend mode="normal" in2="shape" result="filter_41260768-a118-806d-8006-5946e2025809"/><feGaussianBlur stdDeviation="2" result="filter_0406b820-15ce-80e0-8006-74b354c2dc6c"/></filter><filter id="filter-shadow-render-2" x="0" y="0" width="1" height="1" filterUnits="objectBoundingBox" color-interpolation-filters="sRGB"><feFlood flood-opacity="0" result="BackgroundImageFix"/><feBlend mode="normal" in="SourceGraphic" in2="BackgroundImageFix" result="shape"/><feColorMatrix in="SourceAlpha" type="matrix" values="0 0 0 0 0 0 0 0 0 0 0 0 0 0 0 0 0 0 127 0" result="hardAlpha"/><feMorphology radius="5" operator="erode" in="SourceAlpha" result="filter_41260768-a118-806d-8006-5946e2025809"/><feOffset dx="-5" dy="-5"/><feGaussianBlur stdDeviation="2"/><feComposite in2="hardAlpha" operator="arithmetic" k2="-1" k3="1"/><feColorMatrix type="matrix" values="0 0 0 0 0 0 0 0 0 0 0 0 0 0 0 0 0 0 0.2 0"/><feBlend mode="normal" in2="shape" result="filter_41260768-a118-806d-8006-5946e2025809"/></filter><filter id="filter-blur-render-2" x="-0.003703703703703704" y="-0.003703703703703704" width="1.0074074074074073" height="1.0074074074074073" filterUnits="objectBoundingBox" color-interpolation-filters="sRGB"><feFlood flood-opacity="0" result="BackgroundImageFix"/><feBlend mode="normal" in="SourceGraphic" in2="BackgroundImageFix" result="shape"/><feGaussianBlur stdDeviation="2" result="filter_0406b820-15ce-80e0-8006-74b354c2dc6c"/></filter></defs><g class="fills" id="fills-41260768-a118-806d-8006-594661b59574"><rect width="1080" height="1080" x="6" transform="matrix(1.000000, 0.000000, 0.000000, 1.000000, 0.000000, 0.000000)" style="fill: rgb(35, 47, 87); fill-opacity: 1;" ry="200" rx="200" filter="url(#filter-render-2)" y="0"/></g></g><g id="shape-41260768-a118-806d-8006-594610066ba4" xml:space="preserve" rx="0" ry="0" style="fill: rgb(0, 0, 0);"><g id="shape-41260768-a118-806d-8006-5946100700a1" style="display: none;"><g class="fills" id="fills-41260768-a118-806d-8006-5946100700a1"><rect width="1080" height="1080" x="0" transform="matrix(1.000000, 0.000000, 0.000000, 1.000000, 0.000000, 0.000000)" style="fill: none;" ry="0" fill="none" rx="0" y="12"/></g></g><g id="shape-41260768-a118-806d-8006-594610088eef"><defs><filter id="filter-render-5" x="-0.004608796114428619" y="-0.004849037162743147" width="1.0092175922288573" height="1.0096980743254862" filterUnits="objectBoundingBox" color-interpolation-filters="sRGB"><feFlood flood-opacity="0" result="BackgroundImageFix"/><feBlend mode="normal" in="SourceGraphic" in2="BackgroundImageFix" result="shape"/><feGaussianBlur stdDeviation="2" result="filter_0406b820-15ce-80e0-8006-74b36dd00fa3"/></filter><filter id="filter-blur-render-5" x="-0.004608796114428619" y="-0.004849037162743147" width="1.0092175922288573" height="1.0096980743254862" filterUnits="objectBoundingBox" color-interpolation-filters="sRGB"><feFlood flood-opacity="0" result="BackgroundImageFix"/><feBlend mode="normal" in="SourceGraphic" in2="BackgroundImageFix" result="shape"/><feGaussianBlur stdDeviation="2" result="filter_0406b820-15ce-80e0-8006-74b36dd00fa3"/></filter></defs><g class="fills" id="fills-41260768-a118-806d-8006-594610088eef"><path d="M566.059326171875,148.22195434570312C574.1842041015625,149.13963317871094,582.303466796875,150.1113739013672,590.435546875,150.96084594726562C599.9547119140625,151.95523071289062,609.539306640625,152.46893310546875,619.0003662109375,153.84483337402344C652.080810546875,158.65550231933594,683.993896484375,167.88101196289062,714.9993896484375,180.24964904785156C758.3016357421875,197.52365112304688,797.9102783203125,221.12730407714844,833.6124267578125,251.06654357910156C877.13916015625,287.56732177734375,911.986572265625,331.14373779296875,937.565673828125,381.9101867675781C956.171630859375,418.8371887207031,969.19873046875,457.68157958984375,975.136962890625,498.6997375488281C977.133056640625,512.4866333007812,978.20068359375,526.4078979492188,979.537841796875,541.0803833007812C979.555419921875,546.9186401367188,979.7275390625,551.9442749023438,979.89990234375,556.9699096679688C979.955810546875,559.0314331054688,980.01171875,561.093017578125,979.815673828125,563.9592895507812C979.586181640625,569.8076171875,979.608154296875,574.8511962890625,979.630615234375,579.894775390625C977.041748046875,636.7606811523438,962.344970703125,690.4351196289062,936.58544921875,741.0711059570312C921.863525390625,770.0104370117188,903.74365234375,796.7186279296875,882.5576171875,821.3991088867188C831.2132568359375,881.2125854492188,767.62255859375,922.82666015625,693.580322265625,948.8353881835938C663.7916259765625,959.2992553710938,633.0433349609375,966.087890625,601.7095947265625,969.9730224609375C591.3206787109375,971.2611694335938,580.8193359375,971.6432495117188,569.56787109375,972.3421630859375C563.1844482421875,972.4659423828125,557.6024169921875,972.6871337890625,552.0203857421875,972.9083251953125C547.982177734375,972.9610595703125,543.94384765625,973.0137939453125,539.0792236328125,972.808837890625C532.7086181640625,972.4185791015625,527.16455078125,972.2859497070312,521.620361328125,972.1533813476562C505.295654296875,970.518798828125,488.9017333984375,969.3847045898438,472.6612548828125,967.1412963867188C442.69970703125,963.0025024414062,413.7406005859375,954.746337890625,385.46435546875,944.1065673828125C341.64111328125,927.6168212890625,301.3424072265625,904.7957153320312,264.9219970703125,875.4148559570312C224.4678955078125,842.780029296875,191.06396484375,803.9755859375,165.03662109375,758.8702392578125C142.1405029296875,719.19140625,126.448486328125,676.829345703125,118.223876953125,631.8432006835938C115.15625,615.0643310546875,114.115478515625,597.9149780273438,112.3743896484375,580.145263671875C112.430908203125,574.9107055664062,112.263671875,570.4653930664062,112.096435546875,566.02001953125C112.0423583984375,562.3126831054688,111.9884033203125,558.6053466796875,112.1920166015625,554.0794677734375C112.375244140625,549.1646118164062,112.3009033203125,545.0684204101562,112.2265625,540.97216796875C115.0302734375,484.3344421386719,129.5118408203125,430.76904296875,155.171630859375,380.28851318359375C169.881103515625,351.3506164550781,188.0101318359375,324.6435241699219,209.1380615234375,299.91546630859375C249.941162109375,252.15963745117188,299.2230224609375,215.70965576171875,355.9947509765625,189.29473876953125C393.1455078125,172.0090789794922,432.0264892578125,160.0463104248047,472.577880859375,153.83377075195312C484.156982421875,152.05984497070312,495.8240966796875,150.83694458007812,507.4698486328125,149.5317840576172C513.329833984375,148.87506103515625,519.232666015625,148.60015869140625,525.91845703125,148.36932373046875C531.8060302734375,148.42381286621094,536.8912353515625,148.2615966796875,541.9764404296875,148.09938049316406C544.039794921875,148.04568481445312,546.1031494140625,147.99200439453125,548.97021484375,148.1922607421875C555.202392578125,148.37144470214844,560.630859375,148.2967071533203,566.059326171875,148.22195434570312M936.432861328125,731.0941772460938C936.67822265625,730.3272705078125,936.923583984375,729.5603637695312,937.48388671875,728.2196655273438C938.348876953125,726.6104736328125,939.433349609375,725.080322265625,940.04638671875,723.3802490234375C947.70654296875,702.132080078125,956.343505859375,681.1632080078125,962.6416015625,659.51513671875C970.380859375,632.913818359375,974.754638671875,605.5227661132812,975.346923828125,577.6864013671875C975.615234375,565.0618896484375,976.409423828125,552.3928833007812,975.682373046875,539.8182373046875C974.927978515625,526.7735595703125,972.84912109375,513.785400390625,970.951904296875,500.83074951171875C965.49267578125,463.5558166503906,954.393310546875,427.9554138183594,938.29443359375,393.9348449707031C916.206298828125,347.2571105957031,886.2939453125,306.2878112792969,848.603759765625,270.916259765625C831.45556640625,254.82315063476562,813.2659912109375,240.12020874023438,793.7823486328125,227.009033203125C764.952880859375,207.60882568359375,734.1844482421875,191.999267578125,701.5850830078125,179.9305419921875C654.4095458984375,162.4655303955078,605.595703125,153.49159240722656,555.4239501953125,152.16452026367188C526.30859375,151.39443969726562,497.3463134765625,153.77850341796875,468.616455078125,158.96359252929688C444.3408203125,163.34481811523438,420.4998779296875,169.29981994628906,397.2724609375,177.55853271484375C325.565185546875,203.05490112304688,264.1732177734375,243.82171630859375,214.13134765625,301.42547607421875C196.27490234375,321.9801330566406,180.6654052734375,344.0794982910156,167.2742919921875,367.74462890625C144.265625,408.4063415527344,128.83642578125,451.8240966796875,121.427734375,497.93414306640625C119.0888671875,512.4909057617188,118.52685546875,527.3331298828125,116.7508544921875,542.8026733398438C116.490478515625,551.1464233398438,116.0809326171875,559.4892578125,116.0323486328125,567.834228515625C116.0076904296875,572.0618286132812,116.6348876953125,576.2932739257812,116.9007568359375,581.3831176757812C117.9051513671875,592.2935791015625,118.598388671875,603.243408203125,119.9713134765625,614.1072998046875C124.3411865234375,648.6847534179688,133.7806396484375,681.933837890625,147.552490234375,713.8927612304688C175.5771484375,778.926513671875,217.7666015625,833.1141357421875,273.734375,876.4387817382812C349.4071044921875,935.0169677734375,435.6060791015625,964.7452392578125,530.8499755859375,968.767822265625C561.9842529296875,970.082763671875,592.9482421875,967.504150390625,623.7010498046875,962.1327514648438C672.986083984375,953.5242919921875,719.499755859375,937.1848754882812,763.2135009765625,912.9241333007812C791.218017578125,897.3818969726562,817.2314453125,878.989013671875,841.5941162109375,857.056396484375C843.1700439453125,856.0323486328125,844.817626953125,855.098388671875,846.28125,853.9331665039062C846.763427734375,853.5491333007812,846.77001953125,852.567626953125,847.416015625,851.3603515625C851.89599609375,847.041748046875,856.376220703125,842.7232055664062,861.46240234375,838.086181640625C862.04345703125,837.3995971679688,862.624267578125,836.7130126953125,863.75439453125,835.6714477539062C876.48681640625,820.2147827148438,889.219482421875,804.7581176757812,902.408447265625,789.0162963867188C902.779541015625,788.3395385742188,903.150390625,787.6627807617188,903.942138671875,786.5173950195312C904.682373046875,785.4299926757812,905.49609375,784.3850708007812,906.151611328125,783.2489013671875C916.09521484375,766.0116577148438,926.01806640625,748.7625122070312,936.432861328125,731.0941772460938Z" filter="url(#filter-render-5)" style="fill: rgb(95, 163, 251);"/></g></g><g id="shape-41260768-a118-806d-8006-594610088ef0"><g class="fills" id="fills-41260768-a118-806d-8006-594610088ef0"><path d="M552.484619140625,972.963623046875C557.6024169921875,972.6871337890625,563.1844482421875,972.4659423828125,569.1273193359375,972.26904296875C563.97509765625,972.5352172851562,558.4619140625,972.7770385742188,552.484619140625,972.963623046875Z" style="fill: rgb(131, 181, 250);"/></g></g><g id="shape-41260768-a118-806d-8006-594610088ef1"><g class="fills" id="fills-41260768-a118-806d-8006-594610088ef1"><path d="M522.0013427734375,972.3470458984375C527.16455078125,972.2859497070312,532.7086181640625,972.4185791015625,538.6202392578125,972.733154296875C533.4525146484375,972.7903442382812,527.9173583984375,972.66552734375,522.0013427734375,972.3470458984375Z" style="fill: rgb(131, 181, 250);"/></g></g><g id="shape-41260768-a118-806d-8006-59461008e9a7"><g class="fills" id="fills-41260768-a118-806d-8006-59461008e9a7"><path d="M565.590576171875,148.1361541748047C560.630859375,148.2967071533203,555.202392578125,148.37144470214844,549.4063720703125,148.27268981933594C554.3997802734375,148.08291625976562,559.7607421875,148.06663513183594,565.590576171875,148.1361541748047Z" style="fill: rgb(139, 186, 251);"/></g></g><g id="shape-41260768-a118-806d-8006-59461008e9a8"><g class="fills" id="fills-41260768-a118-806d-8006-59461008e9a8"><path d="M541.5126953125,148.0490264892578C536.8912353515625,148.2615966796875,531.8060302734375,148.42381286621094,526.34423828125,148.40985107421875C530.994873046875,148.15533447265625,536.02197265625,148.07699584960938,541.5126953125,148.0490264892578Z" style="fill: rgb(139, 186, 251);"/></g></g><g id="shape-41260768-a118-806d-8006-5946100a5495"><g class="fills" id="fills-41260768-a118-806d-8006-5946100a5495"><path d="M979.737060546875,579.4451904296875C979.608154296875,574.8511962890625,979.586181640625,569.8076171875,979.7353515625,564.3948974609375C979.8857421875,569.0157470703125,979.86474609375,574.0057373046875,979.737060546875,579.4451904296875Z" style="fill: rgb(139, 186, 250);"/></g></g><g id="shape-41260768-a118-806d-8006-5946100a5496"><g class="fills" id="fills-41260768-a118-806d-8006-5946100a5496"><path d="M979.950927734375,556.507080078125C979.7275390625,551.9442749023438,979.555419921875,546.9186401367188,979.504638671875,541.5143432617188C979.75146484375,546.105224609375,979.876708984375,551.07470703125,979.950927734375,556.507080078125Z" style="fill: rgb(139, 186, 250);"/></g></g><g id="shape-41260768-a118-806d-8006-5946100a5497"><g class="fills" id="fills-41260768-a118-806d-8006-5946100a5497"><path d="M112.0445556640625,566.4818725585938C112.263671875,570.4653930664062,112.430908203125,574.9107055664062,112.3863525390625,579.71630859375C112.1138916015625,575.698974609375,112.0533447265625,571.3213500976562,112.0445556640625,566.4818725585938Z" style="fill: rgb(132, 183, 251);"/></g></g><g id="shape-41260768-a118-806d-8006-5946100aa784"><g class="fills" id="fills-41260768-a118-806d-8006-5946100aa784"><path d="M112.12841796875,541.4305419921875C112.3009033203125,545.0684204101562,112.375244140625,549.1646118164062,112.2708740234375,553.6231689453125C112.0714111328125,549.9532470703125,112.0509033203125,545.921142578125,112.12841796875,541.4305419921875Z" style="fill: rgb(132, 183, 251);"/></g></g><g id="shape-41260768-a118-806d-8006-5946100aeea2"><g class="fills" id="fills-41260768-a118-806d-8006-5946100aeea2"><path d="M117.151611328125,542.044677734375C118.52685546875,527.3331298828125,119.0888671875,512.4909057617188,121.427734375,497.93414306640625C128.83642578125,451.8240966796875,144.265625,408.4063415527344,167.2742919921875,367.74462890625C180.6654052734375,344.0794982910156,196.27490234375,321.9801330566406,214.13134765625,301.42547607421875C264.1732177734375,243.82171630859375,325.565185546875,203.05490112304688,397.2724609375,177.55853271484375C420.4998779296875,169.29981994628906,444.3408203125,163.34481811523438,468.616455078125,158.96359252929688C497.3463134765625,153.77850341796875,526.30859375,151.39443969726562,555.4239501953125,152.16452026367188C605.595703125,153.49159240722656,654.4095458984375,162.4655303955078,701.5850830078125,179.9305419921875C734.1844482421875,191.999267578125,764.952880859375,207.60882568359375,793.7823486328125,227.009033203125C813.2659912109375,240.12020874023438,831.45556640625,254.82315063476562,848.603759765625,270.916259765625C886.2939453125,306.2878112792969,916.206298828125,347.2571105957031,938.29443359375,393.9348449707031C954.393310546875,427.9554138183594,965.49267578125,463.5558166503906,970.951904296875,500.83074951171875C972.84912109375,513.785400390625,974.927978515625,526.7735595703125,975.682373046875,539.8182373046875C976.409423828125,552.3928833007812,975.615234375,565.0618896484375,975.346923828125,577.6864013671875C974.754638671875,605.5227661132812,970.380859375,632.913818359375,962.6416015625,659.51513671875C956.343505859375,681.1632080078125,947.70654296875,702.132080078125,940.04638671875,723.3802490234375C939.433349609375,725.080322265625,938.348876953125,726.6104736328125,936.94873046875,728.5689697265625C924.1376953125,724.1229858398438,913.328857421875,716.8575439453125,905.1962890625,706.6712646484375C892.61767578125,690.9159545898438,880.72216796875,674.5902099609375,869.05615234375,658.1381225585938C857.47998046875,641.8128662109375,847.78662109375,624.0704345703125,832.3138427734375,610.7845458984375C814.2613525390625,595.2835693359375,793.11767578125,593.0451049804688,772.3785400390625,605.031494140625C756.1368408203125,614.4187622070312,744.0980224609375,628.5347290039062,731.1231689453125,641.6064453125C726.5643310546875,646.1992797851562,722.152587890625,651.01318359375,717.131591796875,655.0523071289062C711.2784423828125,659.7607421875,704.256591796875,662.523193359375,696.8023681640625,659.8124389648438C690.8466796875,657.6466674804688,684.874755859375,654.8069458007812,679.8043212890625,651.0570068359375C663.518310546875,639.012451171875,650.439453125,623.6942138671875,637.569091796875,608.1865844726562C615.4158935546875,581.4942016601562,595.3837890625,553.4534912109375,580.053466796875,522.1695556640625C567.44970703125,496.4496765136719,550.88525390625,473.34918212890625,531.70068359375,452.1133728027344C522.001708984375,441.3773193359375,512.364501953125,430.5846862792969,502.5909423828125,419.9169006347656C484.05322265625,399.6829528808594,465.978515625,378.98583984375,446.7000732421875,359.480712890625C427.918701171875,340.4786071777344,404.8787841796875,334.5640869140625,378.7105712890625,341.603271484375C358.8892822265625,346.93524169921875,341.4580078125,356.9215087890625,324.94970703125,368.6539001464844C313.895263671875,376.5103759765625,303.2916259765625,385.0011291503906,292.3787841796875,393.2232666015625C292.271484375,393.2384338378906,292.216064453125,393.44793701171875,291.9251708984375,393.580322265625C289.91845703125,395.2148132324219,288.2027587890625,396.7169189453125,286.384033203125,398.2340393066406C286.2811279296875,398.2490539550781,286.236328125,398.45233154296875,285.9462890625,398.6070556640625C279.9334716796875,403.91375732421875,274.210693359375,409.065673828125,268.3809814453125,414.2384948730469C268.274169921875,414.2593688964844,268.2398681640625,414.4745788574219,268.057861328125,414.539306640625C267.6448974609375,414.7544860839844,267.5067138671875,414.9654846191406,267.3575439453125,415.24310302734375C267.254150390625,415.2491455078125,267.2208251953125,415.4536437988281,266.928466796875,415.59893798828125C260.5877685546875,421.2337951660156,254.5394287109375,426.7234191894531,248.3846435546875,432.2282409667969C248.2781982421875,432.24346923828125,248.236083984375,432.454345703125,247.9447021484375,432.60516357421875C244.9327392578125,435.2456970214844,242.2120361328125,437.7354431152344,239.3861083984375,440.2427673339844C239.28076171875,440.26031494140625,239.249755859375,440.4715881347656,239.0648193359375,440.5356140136719C238.645751953125,440.7516784667969,238.50537109375,440.9652099609375,238.3544921875,441.2442321777344C238.2503662109375,441.2482604980469,238.2174072265625,441.4541320800781,237.9208984375,441.59222412109375C232.912353515625,445.89251708984375,228.2003173828125,450.05474853515625,223.38134765625,454.22979736328125C223.2744140625,454.2426452636719,223.228271484375,454.45294189453125,222.93701171875,454.5855712890625C220.9295654296875,456.2208557128906,219.21337890625,457.7235412597656,217.3907470703125,459.23907470703125C217.2843017578125,459.2519226074219,217.2388916015625,459.46148681640625,216.940185546875,459.60101318359375C211.256103515625,464.2298889160156,205.8707275390625,468.7192077636719,200.3746337890625,473.22198486328125C200.263916015625,473.2354431152344,200.20751953125,473.4512023925781,199.9034423828125,473.57550048828125C191.8953857421875,480.2041015625,184.1912841796875,486.7083740234375,176.3790283203125,493.2252197265625C176.2706298828125,493.23773193359375,176.22314453125,493.45062255859375,175.9227294921875,493.5843505859375C166.5760498046875,501.5482482910156,157.52978515625,509.37847900390625,148.37548828125,517.2247314453125C148.2674560546875,517.2407836914062,148.219482421875,517.4539794921875,147.92724609375,517.5936279296875C145.5869140625,519.562255859375,143.5389404296875,521.3912353515625,141.3828125,523.2332763671875C141.274658203125,523.2462768554688,141.23046875,523.4596557617188,140.931884765625,523.5965576171875C134.9202880859375,528.564453125,129.207275390625,533.3953857421875,123.387451171875,538.2423095703125C123.28076171875,538.25830078125,123.23486328125,538.46923828125,122.9444580078125,538.6151733398438C120.81982421875,539.8555908203125,118.9857177734375,540.9501342773438,117.151611328125,542.044677734375Z" style="fill: rgb(31, 201, 202);"/></g></g><g id="shape-41260768-a118-806d-8006-5946100b085f"><g class="fills" id="fills-41260768-a118-806d-8006-5946100b085f"><path d="M840.9512939453125,857.4151000976562C817.2314453125,878.989013671875,791.218017578125,897.3818969726562,763.2135009765625,912.9241333007812C719.499755859375,937.1848754882812,672.986083984375,953.5242919921875,623.7010498046875,962.1327514648438C592.9482421875,967.504150390625,561.9842529296875,970.082763671875,530.8499755859375,968.767822265625C435.6060791015625,964.7452392578125,349.4071044921875,935.0169677734375,273.734375,876.4387817382812C217.7666015625,833.1141357421875,175.5771484375,778.926513671875,147.552490234375,713.8927612304688C133.7806396484375,681.933837890625,124.3411865234375,648.6847534179688,119.9713134765625,614.1072998046875C118.598388671875,603.243408203125,117.9051513671875,592.2935791015625,116.992431640625,580.4489135742188C117.0098876953125,570.7437744140625,117.0340576171875,561.9703979492188,116.822509765625,553.2027587890625C116.7059326171875,548.3738403320312,116.9208984375,543.9373168945312,122.009521484375,541.3848266601562C122.725341796875,541.0258178710938,122.84130859375,539.470703125,123.23486328125,538.46923828125C123.23486328125,538.46923828125,123.28076171875,538.25830078125,123.7437744140625,538.3524780273438C129.5263671875,534.4818725585938,134.8895263671875,530.5726318359375,140.115234375,526.4877319335938C140.835693359375,525.924560546875,140.87548828125,524.4905395507812,141.23046875,523.4596557617188C141.23046875,523.4596557617188,141.274658203125,523.2462768554688,141.7362060546875,523.3392333984375C144.2049560546875,521.439453125,146.2122802734375,519.4467163085938,148.219482421875,517.4539794921875C148.219482421875,517.4539794921875,148.2674560546875,517.2407836914062,148.7275390625,517.3287353515625C149.8209228515625,517.2862548828125,150.6270751953125,517.3612060546875,151.0614013671875,516.9949951171875C159.1123046875,510.20721435546875,167.146240234375,503.3985595703125,175.0875244140625,496.4836730957031C175.8035888671875,495.8602294921875,175.8603515625,494.4796142578125,176.22314453125,493.45062255859375C176.22314453125,493.45062255859375,176.2706298828125,493.23773193359375,176.732666015625,493.33087158203125C182.96142578125,489.063720703125,188.850341796875,484.8522644042969,194.4356689453125,480.2706604003906C196.7003173828125,478.41290283203125,198.3033447265625,475.74853515625,200.20751953125,473.4512023925781C200.20751953125,473.4512023925781,200.263916015625,473.2354431152344,200.72802734375,473.3316345214844C206.0511474609375,469.90863037109375,210.9669189453125,466.4631042480469,215.716796875,462.802490234375C216.573486328125,462.1422119140625,216.7489013671875,460.59771728515625,217.2388916015625,459.46148681640625C217.2388916015625,459.46148681640625,217.2843017578125,459.2519226074219,217.7449951171875,459.3488464355469C219.8800048828125,457.781494140625,221.5540771484375,456.1172180175781,223.228271484375,454.45294189453125C223.228271484375,454.45294189453125,223.2744140625,454.2426452636719,223.735595703125,454.3341979980469C228.1800537109375,451.46856689453125,232.2574462890625,448.6258239746094,236.0869140625,445.481201171875C237.16943359375,444.59228515625,237.5272216796875,442.8208312988281,238.2174072265625,441.4541320800781C238.2174072265625,441.4541320800781,238.2503662109375,441.2482604980469,238.5738525390625,441.2286376953125C239.195556640625,441.04949951171875,239.31298828125,440.8037109375,239.249755859375,440.4715881347656C239.249755859375,440.4715881347656,239.28076171875,440.26031494140625,239.7388916015625,440.34454345703125C242.8765869140625,437.7706604003906,245.556396484375,435.11248779296875,248.236083984375,432.454345703125C248.236083984375,432.454345703125,248.2781982421875,432.24346923828125,248.73193359375,432.3350830078125C255.20458984375,427.2532043457031,261.2318115234375,422.0892639160156,267.2113037109375,416.8706970214844C267.4471435546875,416.6648864746094,267.2279052734375,415.9378356933594,267.2208251953125,415.4536437988281C267.2208251953125,415.4536437988281,267.254150390625,415.2491455078125,267.57421875,415.2267761230469C268.1878662109375,415.0455322265625,268.3031005859375,414.8022766113281,268.2398681640625,414.4745788574219C268.2398681640625,414.4745788574219,268.274169921875,414.2593688964844,268.732666015625,414.34075927734375C274.7982177734375,409.73651123046875,280.4210205078125,405.0694580078125,285.9752197265625,400.32208251953125C286.3333740234375,400.0159606933594,286.16162109375,399.0899658203125,286.236328125,398.45233154296875C286.236328125,398.45233154296875,286.2811279296875,398.2490539550781,286.73974609375,398.33685302734375C288.87109375,396.7657165527344,290.5435791015625,395.1068420410156,292.216064453125,393.44793701171875C292.216064453125,393.44793701171875,292.271484375,393.2384338378906,292.733154296875,393.3339538574219C296.0830078125,391.5928955078125,299.1046142578125,389.9346923828125,301.8380126953125,387.89093017578125C320.1199951171875,374.2211608886719,338.2779541015625,360.3110656738281,359.2572021484375,350.90655517578125C371.1600341796875,345.57086181640625,383.2855224609375,340.46661376953125,396.94384765625,342.27056884765625C396.9927978515625,342.4654235839844,397.0438232421875,342.864013671875,397.2513427734375,343.1349792480469C407.556640625,350.41650390625,418.2738037109375,356.6936950683594,427.6219482421875,364.5912780761719C446.6737060546875,380.6866455078125,459.844482421875,401.3319091796875,469.2152099609375,424.244384765625C472.7711181640625,432.9391174316406,475.859619140625,442.2760925292969,476.6514892578125,451.53497314453125C477.6197509765625,462.8583068847656,474.4244384765625,474.2853698730469,468.088134765625,483.8113708496094C458.6165771484375,498.0509948730469,448.3892822265625,511.83966064453125,437.7437744140625,525.232177734375C427.116455078125,538.6017456054688,419.321044921875,553.0609741210938,418.0089111328125,570.2047729492188C416.4169921875,591.0067138671875,421.4398193359375,610.3291625976562,432.1219482421875,628.384765625C447.2359619140625,653.9315795898438,467.31005859375,672.8170776367188,496.998779296875,680.0184326171875C511.8525390625,683.6214599609375,523.6866455078125,692.1334228515625,532.01220703125,704.8939819335938C538.5423583984375,714.9027099609375,544.206298828125,725.474365234375,550.3336181640625,735.7489013671875C556.8023681640625,746.5956420898438,562.828857421875,757.7586669921875,570.0174560546875,768.1107177734375C579.630615234375,781.9540405273438,593.318359375,790.123779296875,609.8958740234375,793.4542236328125C623.898193359375,796.2672119140625,637.9705810546875,796.2921142578125,652.5643310546875,794.9442138671875C660.9805908203125,794.9510498046875,668.9373779296875,794.9390258789062,677.3226318359375,794.974365234375C698.14306640625,796.479736328125,717.4600830078125,801.3145751953125,734.24658203125,813.611328125C744.8343505859375,821.3673095703125,755.148681640625,829.4953002929688,765.684326171875,837.3236694335938C784.7652587890625,851.5014038085938,805.716064453125,859.290283203125,829.951904296875,856.2784423828125C833.5162353515625,855.8355102539062,837.2799072265625,856.996337890625,840.9512939453125,857.4151000976562Z" style="fill: rgb(255, 169, 31);"/></g></g><g id="shape-41260768-a118-806d-8006-5946100b6f5c"><g class="fills" id="fills-41260768-a118-806d-8006-5946100b6f5c"><path d="M397.0438232421875,342.864013671875C397.0438232421875,342.864013671875,396.9927978515625,342.4654235839844,397.243408203125,341.9615173339844C398.3026123046875,341.2953186035156,399.1075439453125,341.0133056640625,399.920166015625,340.98828125C417.52734375,340.44635009765625,431.8841552734375,348.2650146484375,443.9942626953125,359.8639221191406C456.94677734375,372.2699279785156,469.0181884765625,385.6232604980469,481.1063232421875,398.8981018066406C497.4442138671875,416.8399658203125,513.3319091796875,435.1908874511719,529.59521484375,453.20166015625C547.71240234375,473.26568603515625,563.8424072265625,494.8272705078125,575.6810302734375,519.1076049804688C591.9615478515625,552.4981079101562,612.482177734375,583.0156860351562,636.6456298828125,610.9631958007812C650.7197265625,627.2413940429688,666.7655029296875,641.8150634765625,682.085693359375,657.4429931640625C684.1458740234375,659.1766357421875,686.0445556640625,660.6229858398438,687.97119140625,662.0506591796875C687.9993896484375,662.031982421875,687.9320068359375,662.0358276367188,687.9034423828125,662.3533935546875C688.2373046875,662.8030395507812,688.5994873046875,662.9351196289062,688.9755859375,663.03759765625C688.989501953125,663.0079345703125,688.9322509765625,663.0396118164062,688.89990234375,663.358154296875C689.2310791015625,663.8067626953125,689.5946044921875,663.9368896484375,689.9708251953125,664.0364990234375C689.9835205078125,664.0059814453125,689.92578125,664.0382690429688,689.825927734375,664.3876953125C701.7935791015625,677.1880493164062,713.8614501953125,689.6389770507812,726.0755615234375,702.3887939453125C746.72705078125,723.2999267578125,767.2574462890625,743.8870849609375,787.729248046875,764.5324096679688C803.04931640625,779.982421875,818.293701171875,795.5073852539062,833.7828369140625,811.2793579101562C842.9478759765625,820.508056640625,851.902099609375,829.4563598632812,860.856201171875,838.4046630859375C856.376220703125,842.7232055664062,851.89599609375,847.041748046875,846.7529296875,851.6262817382812C840.0040283203125,852.6045532226562,833.935791015625,853.5888061523438,827.82958984375,853.977294921875C810.9403076171875,855.052001953125,794.863037109375,851.40966796875,780.6531982421875,842.4735717773438C767.7467041015625,834.3571166992188,755.664794921875,824.8815307617188,743.5233154296875,815.6071166992188C722.688720703125,799.6921997070312,699.3756103515625,791.5474243164062,673.11376953125,791.9365234375C660.452880859375,792.1240844726562,647.791015625,792.2938842773438,635.1290283203125,792.3329467773438C617.6044921875,792.3869018554688,600.438232421875,790.59228515625,585.8946533203125,779.517578125C574.298828125,770.6876220703125,566.28369140625,758.7931518554688,559.3251953125,746.1934814453125C552.9775390625,734.6997680664062,547.203125,722.8768920898438,540.55126953125,711.5665283203125C529.9324951171875,693.5111083984375,515.0975341796875,680.6795654296875,494.12158203125,675.7666015625C488.9903564453125,674.5648803710938,483.95263671875,672.5582885742188,479.1873779296875,670.26611328125C451.359130859375,656.88037109375,435.068603515625,633.4527587890625,425.132568359375,605.4069213867188C416.0208740234375,579.68798828125,419.185791015625,555.0205688476562,435.90380859375,532.84375C444.200439453125,521.8378295898438,453.12158203125,511.3006591796875,461.355224609375,500.2497863769531C471.9737548828125,485.9981689453125,479.5338134765625,470.4691467285156,478.9381103515625,452.0659484863281C478.4814453125,437.9552307128906,473.25146484375,425.2834167480469,467.1416015625,412.8414306640625C452.8345947265625,383.7073059082031,432.3250732421875,360.38641357421875,403.60546875,344.74713134765625C401.6549072265625,343.6849060058594,399.2418212890625,343.4719543457031,397.0438232421875,342.864013671875Z" style="fill: rgb(202, 87, 31);"/></g></g><g id="shape-41260768-a118-806d-8006-5946100bbf62"><g class="fills" id="fills-41260768-a118-806d-8006-5946100bbf62"><path d="M901.951904296875,789.3013916015625C889.219482421875,804.7581176757812,876.48681640625,820.2147827148438,863.119384765625,835.8232421875C860.84521484375,834.6357421875,859.094482421875,833.4105834960938,857.585693359375,831.9376831054688C850.04345703125,824.5753784179688,842.564697265625,817.1481323242188,834.9490966796875,809.444091796875C833.413330078125,807.5261840820312,832.0726318359375,805.8283081054688,830.55908203125,804.3016357421875C811.8223876953125,785.4004516601562,793.1070556640625,766.4776611328125,774.2906494140625,747.656005859375C758.6558837890625,732.0167846679688,742.894287109375,716.504150390625,726.9984130859375,700.6549682617188C723.7911376953125,697.2825317382812,720.8326416015625,694.1309204101562,717.746337890625,691.10986328125C708.4996337890625,682.05859375,699.2030029296875,673.0584106445312,689.92578125,664.0382690429688C689.92578125,664.0382690429688,689.9835205078125,664.0059814453125,689.891357421875,663.7874755859375C689.51025390625,663.3925170898438,689.22119140625,663.216064453125,688.9322509765625,663.0396118164062C688.9322509765625,663.0396118164062,688.989501953125,663.0079345703125,688.8875732421875,662.7936401367188C688.501220703125,662.398193359375,688.2166748046875,662.2169799804688,687.9320068359375,662.0358276367188C687.9320068359375,662.0358276367188,687.9993896484375,662.031982421875,688.0157470703125,661.7323608398438C688.0540771484375,661.00537109375,688.0760498046875,660.5780029296875,688.469482421875,660.175537109375C703.2158203125,666.3136596679688,715.0753173828125,662.025146484375,725.390380859375,651.359375C728.7462158203125,647.889404296875,732.033447265625,644.3505249023438,735.45947265625,640.951416015625C743.5970458984375,632.8773803710938,751.4757080078125,624.5028686523438,760.0499267578125,616.917724609375C773.038330078125,605.427490234375,787.851318359375,598.114990234375,805.9337158203125,600.308837890625C806.28466796875,601.0859985351562,806.6121826171875,601.559814453125,806.9481201171875,602.0294189453125C806.95654296875,602.0252075195312,806.9693603515625,602.0361938476562,807.06396484375,602.2701416015625C807.4410400390625,602.67236328125,807.7236328125,602.8406372070312,808.268798828125,603.1616821289062C809.2796630859375,603.5706787109375,810.0281982421875,603.826904296875,810.9947509765625,604.3631591796875C812.4918212890625,605.0891723632812,813.7708740234375,605.53515625,815.0244140625,605.9904174804688C814.9989013671875,605.9996337890625,815.0150146484375,605.9478759765625,815.0029296875,606.3029174804688C816.03125,607.9027709960938,816.9844970703125,609.2345581054688,818.1259765625,610.3786010742188C826.704345703125,618.9769287109375,832.236572265625,629.1517944335938,831.7608642578125,641.4425659179688C831.3587646484375,651.834228515625,830.339111328125,662.3190307617188,828.3062744140625,672.5057983398438C824.286865234375,692.6468505859375,828.7974853515625,709.7473754882812,844.1243896484375,723.6761474609375C854.33837890625,732.9583740234375,864.6875,742.0921020507812,874.885009765625,751.3922729492188C886.606689453125,762.0828247070312,895.231689453125,775.0211181640625,901.951904296875,789.3013916015625Z" style="fill: rgb(254, 169, 30);"/></g></g><g id="shape-41260768-a118-806d-8006-5946100bbf63"><g class="fills" id="fills-41260768-a118-806d-8006-5946100bbf63"><path d="M935.946044921875,731.5162353515625C926.01806640625,748.7625122070312,916.09521484375,766.0116577148438,906.151611328125,783.2489013671875C905.49609375,784.3850708007812,904.682373046875,785.4299926757812,903.531494140625,786.4395751953125C895.920166015625,771.5435791015625,886.392333984375,758.4779663085938,874.085205078125,747.4544677734375C863.443115234375,737.9224243164062,852.5927734375,728.5921630859375,842.4134521484375,718.5838012695312C833.4560546875,709.7767333984375,828.2147216796875,698.8120727539062,829.109375,685.9352416992188C829.6571044921875,678.0512084960938,831.3807373046875,670.2476196289062,832.6007080078125,662.4117431640625C834.475341796875,650.3715209960938,835.6873779296875,638.3261108398438,831.1007080078125,626.6006469726562C827.8026123046875,618.1697998046875,823.463134765625,610.4260864257812,815.0150146484375,605.9478759765625C815.0150146484375,605.9478759765625,814.9989013671875,605.9996337890625,814.9156494140625,605.692626953125C813.9736328125,604.8779296875,813.11474609375,604.3703002929688,812.2391357421875,603.7262573242188C812.22216796875,603.58984375,812.1158447265625,603.3363037109375,812.322509765625,603.171630859375C812.71875,602.7130737304688,812.9083251953125,602.4192504882812,813.4385986328125,602.204833984375C827.9552001953125,607.7919921875,838.1995849609375,618.1475830078125,846.7333984375,630.1444702148438C861.714599609375,651.2050170898438,876.01416015625,672.7494506835938,890.9404296875,693.8499145507812C902.109130859375,709.638427734375,915.44091796875,723.0894775390625,934.15771484375,729.9872436523438C934.847900390625,730.24169921875,935.354248046875,730.9952392578125,935.946044921875,731.5162353515625Z" style="fill: rgb(202, 87, 32);"/></g></g><g id="shape-41260768-a118-806d-8006-5946100bc529"><g class="fills" id="fills-41260768-a118-806d-8006-5946100bc529"><path d="M397.2513427734375,343.135009765625C399.2418212890625,343.4719543457031,401.6549072265625,343.6849060058594,403.60546875,344.74713134765625C432.3250732421875,360.38641357421875,452.8345947265625,383.7073059082031,467.1416015625,412.8414306640625C473.25146484375,425.2834167480469,478.4814453125,437.9552307128906,478.9381103515625,452.0659484863281C479.5338134765625,470.4691467285156,471.9737548828125,485.9981689453125,461.355224609375,500.2497863769531C453.12158203125,511.3006591796875,444.200439453125,521.8378295898438,435.90380859375,532.84375C419.185791015625,555.0205688476562,416.0208740234375,579.68798828125,425.132568359375,605.4069213867188C435.068603515625,633.4527587890625,451.359130859375,656.88037109375,479.1873779296875,670.26611328125C483.95263671875,672.5582885742188,488.9903564453125,674.5648803710938,494.12158203125,675.7666015625C515.0975341796875,680.6795654296875,529.9324951171875,693.5111083984375,540.55126953125,711.5665283203125C547.203125,722.8768920898438,552.9775390625,734.6997680664062,559.3251953125,746.1934814453125C566.28369140625,758.7931518554688,574.298828125,770.6876220703125,585.8946533203125,779.517578125C600.438232421875,790.59228515625,617.6044921875,792.3869018554688,635.1290283203125,792.3329467773438C647.791015625,792.2938842773438,660.452880859375,792.1240844726562,673.11376953125,791.9365234375C699.3756103515625,791.5474243164062,722.688720703125,799.6921997070312,743.5233154296875,815.6071166992188C755.664794921875,824.8815307617188,767.7467041015625,834.3571166992188,780.6531982421875,842.4735717773438C794.863037109375,851.40966796875,810.9403076171875,855.052001953125,827.82958984375,853.977294921875C833.935791015625,853.5888061523438,840.0040283203125,852.6045532226562,846.541748046875,851.875732421875C846.77001953125,852.567626953125,846.763427734375,853.5491333007812,846.28125,853.9331665039062C844.817626953125,855.098388671875,843.1700439453125,856.0323486328125,841.272705078125,857.2357177734375C837.2799072265625,856.996337890625,833.5162353515625,855.8355102539062,829.951904296875,856.2784423828125C805.716064453125,859.290283203125,784.7652587890625,851.5014038085938,765.684326171875,837.3236694335938C755.148681640625,829.4953002929688,744.8343505859375,821.3673095703125,734.24658203125,813.611328125C717.4600830078125,801.3145751953125,698.14306640625,796.479736328125,676.975341796875,794.7716064453125C668.16796875,794.6560668945312,660.1363525390625,794.7907104492188,652.104736328125,794.9253540039062C637.9705810546875,796.2921142578125,623.898193359375,796.2672119140625,609.8958740234375,793.4542236328125C593.318359375,790.123779296875,579.630615234375,781.9540405273438,570.0174560546875,768.1107177734375C562.828857421875,757.7586669921875,556.8023681640625,746.5956420898438,550.3336181640625,735.7489013671875C544.206298828125,725.474365234375,538.5423583984375,714.9027099609375,532.01220703125,704.8939819335938C523.6866455078125,692.1334228515625,511.8525390625,683.6214599609375,496.998779296875,680.0184326171875C467.31005859375,672.8170776367188,447.2359619140625,653.9315795898438,432.1219482421875,628.384765625C421.4398193359375,610.3291625976562,416.4169921875,591.0067138671875,418.0089111328125,570.2047729492188C419.321044921875,553.0609741210938,427.116455078125,538.6017456054688,437.7437744140625,525.232177734375C448.3892822265625,511.83966064453125,458.6165771484375,498.0509948730469,468.088134765625,483.8113708496094C474.4244384765625,474.2853698730469,477.6197509765625,462.8583068847656,476.6514892578125,451.53497314453125C475.859619140625,442.2760925292969,472.7711181640625,432.9391174316406,469.2152099609375,424.244384765625C459.844482421875,401.3319091796875,446.6737060546875,380.6866455078125,427.6219482421875,364.5912780761719C418.2738037109375,356.6936950683594,407.556640625,350.41650390625,397.2513427734375,343.135009765625Z" style="fill: rgb(253, 190, 95);"/></g></g><g id="shape-41260768-a118-806d-8006-5946100c24be"><g class="fills" id="fills-41260768-a118-806d-8006-5946100c24be"><path d="M936.189453125,731.30517578125C935.354248046875,730.9952392578125,934.847900390625,730.24169921875,934.15771484375,729.9872436523438C915.44091796875,723.0894775390625,902.109130859375,709.638427734375,890.9404296875,693.8499145507812C876.01416015625,672.7494506835938,861.714599609375,651.2050170898438,846.7333984375,630.1444702148438C838.1995849609375,618.1475830078125,827.9552001953125,607.7919921875,813.25634765625,602.191650390625C812.527587890625,602.511474609375,812.3216552734375,602.9238891601562,812.1158447265625,603.3363037109375C812.1158447265625,603.3363037109375,812.22216796875,603.58984375,811.869140625,603.7802734375C811.26953125,604.0081176757812,811.0230712890625,604.0455932617188,810.7767333984375,604.0831298828125C810.0281982421875,603.826904296875,809.2796630859375,603.5706787109375,808.1116943359375,602.983154296875C807.470458984375,602.424072265625,807.2294921875,602.2188110351562,806.9693603515625,602.0361938476562C806.9693603515625,602.0361938476562,806.95654296875,602.0252075195312,806.8851318359375,601.74658203125C806.5125732421875,600.98046875,806.2115478515625,600.4929809570312,805.910400390625,600.0054931640625C787.851318359375,598.114990234375,773.038330078125,605.427490234375,760.0499267578125,616.917724609375C751.4757080078125,624.5028686523438,743.5970458984375,632.8773803710938,735.45947265625,640.951416015625C732.033447265625,644.3505249023438,728.7462158203125,647.889404296875,725.390380859375,651.359375C715.0753173828125,662.025146484375,703.2158203125,666.3136596679688,688.375,659.922119140625C685.913818359375,658.814453125,683.9189453125,657.9850463867188,681.924072265625,657.1556396484375C666.7655029296875,641.8150634765625,650.7197265625,627.2413940429688,636.6456298828125,610.9631958007812C612.482177734375,583.0156860351562,591.9615478515625,552.4981079101562,575.6810302734375,519.1076049804688C563.8424072265625,494.8272705078125,547.71240234375,473.26568603515625,529.59521484375,453.20166015625C513.3319091796875,435.1908874511719,497.4442138671875,416.8399658203125,481.1063232421875,398.8981018066406C469.0181884765625,385.6232604980469,456.94677734375,372.2699279785156,443.9942626953125,359.8639221191406C431.8841552734375,348.2650146484375,417.52734375,340.44635009765625,399.920166015625,340.98828125C399.1075439453125,341.0133056640625,398.3026123046875,341.2953186035156,397.1944580078125,341.76666259765625C383.2855224609375,340.46661376953125,371.1600341796875,345.57086181640625,359.2572021484375,350.90655517578125C338.2779541015625,360.3110656738281,320.1199951171875,374.2211608886719,301.8380126953125,387.89093017578125C299.1046142578125,389.9346923828125,296.0830078125,391.5928955078125,292.84033203125,393.31878662109375C303.2916259765625,385.0011291503906,313.895263671875,376.5103759765625,324.94970703125,368.6539001464844C341.4580078125,356.9215087890625,358.8892822265625,346.93524169921875,378.7105712890625,341.603271484375C404.8787841796875,334.5640869140625,427.918701171875,340.4786071777344,446.7000732421875,359.480712890625C465.978515625,378.98583984375,484.05322265625,399.6829528808594,502.5909423828125,419.9169006347656C512.364501953125,430.5846862792969,522.001708984375,441.3773193359375,531.70068359375,452.1133728027344C550.88525390625,473.34918212890625,567.44970703125,496.4496765136719,580.053466796875,522.1695556640625C595.3837890625,553.4534912109375,615.4158935546875,581.4942016601562,637.569091796875,608.1865844726562C650.439453125,623.6942138671875,663.518310546875,639.012451171875,679.8043212890625,651.0570068359375C684.874755859375,654.8069458007812,690.8466796875,657.6466674804688,696.8023681640625,659.8124389648438C704.256591796875,662.523193359375,711.2784423828125,659.7607421875,717.131591796875,655.0523071289062C722.152587890625,651.01318359375,726.5643310546875,646.1992797851562,731.1231689453125,641.6064453125C744.0980224609375,628.5347290039062,756.1368408203125,614.4187622070312,772.3785400390625,605.031494140625C793.11767578125,593.0451049804688,814.2613525390625,595.2835693359375,832.3138427734375,610.7845458984375C847.78662109375,624.0704345703125,857.47998046875,641.8128662109375,869.05615234375,658.1381225585938C880.72216796875,674.5902099609375,892.61767578125,690.9159545898438,905.1962890625,706.6712646484375C913.328857421875,716.8575439453125,924.1376953125,724.1229858398438,936.79150390625,728.8558959960938C936.923583984375,729.5603637695312,936.67822265625,730.3272705078125,936.189453125,731.30517578125Z" style="fill: rgb(252, 193, 99);"/></g></g><g id="shape-41260768-a118-806d-8006-5946100c24bf"><g class="fills" id="fills-41260768-a118-806d-8006-5946100c24bf"><path d="M815.0029296875,606.3029174804688C823.463134765625,610.4260864257812,827.8026123046875,618.1697998046875,831.1007080078125,626.6006469726562C835.6873779296875,638.3261108398438,834.475341796875,650.3715209960938,832.6007080078125,662.4117431640625C831.3807373046875,670.2476196289062,829.6571044921875,678.0512084960938,829.109375,685.9352416992188C828.2147216796875,698.8120727539062,833.4560546875,709.7767333984375,842.4134521484375,718.5838012695312C852.5927734375,728.5921630859375,863.443115234375,737.9224243164062,874.085205078125,747.4544677734375C886.392333984375,758.4779663085938,895.920166015625,771.5435791015625,903.3212890625,786.6739501953125C903.150390625,787.6627807617188,902.779541015625,788.3395385742188,902.18017578125,789.1588745117188C895.231689453125,775.0211181640625,886.606689453125,762.0828247070312,874.885009765625,751.3922729492188C864.6875,742.0921020507812,854.33837890625,732.9583740234375,844.1243896484375,723.6761474609375C828.7974853515625,709.7473754882812,824.286865234375,692.6468505859375,828.3062744140625,672.5057983398438C830.339111328125,662.3190307617188,831.3587646484375,651.834228515625,831.7608642578125,641.4425659179688C832.236572265625,629.1517944335938,826.704345703125,618.9769287109375,818.1259765625,610.3786010742188C816.9844970703125,609.2345581054688,816.03125,607.9027709960938,815.0029296875,606.3029174804688Z" style="fill: rgb(252, 194, 105);"/></g></g><g id="shape-41260768-a118-806d-8006-5946100c4357"><g class="fills" id="fills-41260768-a118-806d-8006-5946100c4357"><path d="M835.063720703125,809.7437744140625C842.564697265625,817.1481323242188,850.04345703125,824.5753784179688,857.585693359375,831.9376831054688C859.094482421875,833.4105834960938,860.84521484375,834.6357421875,862.8447265625,836.000732421875C862.624267578125,836.7130126953125,862.04345703125,837.3995971679688,861.159423828125,838.2454223632812C851.902099609375,829.4563598632812,842.9478759765625,820.508056640625,834.068359375,811.11474609375C834.449951171875,810.361083984375,834.7568359375,810.0524291992188,835.063720703125,809.7437744140625Z" style="fill: rgb(254, 204, 121);"/></g></g><g id="shape-41260768-a118-806d-8006-5946100c4358"><g class="fills" id="fills-41260768-a118-806d-8006-5946100c4358"><path d="M122.9444580078125,538.6151733398438C122.84130859375,539.470703125,122.725341796875,541.0258178710938,122.009521484375,541.3848266601562C116.9208984375,543.9373168945312,116.7059326171875,548.3738403320312,116.822509765625,553.2027587890625C117.0340576171875,561.9703979492188,117.0098876953125,570.7437744140625,117.0257568359375,580.018798828125C116.6348876953125,576.2932739257812,116.0076904296875,572.0618286132812,116.0323486328125,567.834228515625C116.0809326171875,559.4892578125,116.490478515625,551.1464233398438,116.951171875,542.4237060546875C118.9857177734375,540.9501342773438,120.81982421875,539.8555908203125,122.9444580078125,538.6151733398438Z" style="fill: rgb(252, 193, 99);"/></g></g><g id="shape-41260768-a118-806d-8006-5946100c4359"><g class="fills" id="fills-41260768-a118-806d-8006-5946100c4359"><path d="M175.9227294921875,493.5843505859375C175.8603515625,494.4796142578125,175.8035888671875,495.8602294921875,175.0875244140625,496.4836730957031C167.146240234375,503.3985595703125,159.1123046875,510.20721435546875,151.0614013671875,516.9949951171875C150.6270751953125,517.3612060546875,149.8209228515625,517.2862548828125,148.835693359375,517.3126831054688C157.52978515625,509.37847900390625,166.5760498046875,501.5482482910156,175.9227294921875,493.5843505859375Z" style="fill: rgb(252, 193, 99);"/></g></g><g id="shape-41260768-a118-806d-8006-5946100ca7e9"><g class="fills" id="fills-41260768-a118-806d-8006-5946100ca7e9"><path d="M199.9034423828125,473.57550048828125C198.3033447265625,475.74853515625,196.7003173828125,478.41290283203125,194.4356689453125,480.2706604003906C188.850341796875,484.8522644042969,182.96142578125,489.063720703125,176.8409423828125,493.318359375C184.1912841796875,486.7083740234375,191.8953857421875,480.2041015625,199.9034423828125,473.57550048828125Z" style="fill: rgb(252, 193, 99);"/></g></g><g id="shape-41260768-a118-806d-8006-5946100ca7ea"><g class="fills" id="fills-41260768-a118-806d-8006-5946100ca7ea"><path d="M266.928466796875,415.59893798828125C267.2279052734375,415.9378356933594,267.4471435546875,416.6648864746094,267.2113037109375,416.8706970214844C261.2318115234375,422.0892639160156,255.20458984375,427.2532043457031,248.83837890625,432.3198547363281C254.5394287109375,426.7234191894531,260.5877685546875,421.2337951660156,266.928466796875,415.59893798828125Z" style="fill: rgb(252, 193, 99);"/></g></g><g id="shape-41260768-a118-806d-8006-5946100ca7eb"><g class="fills" id="fills-41260768-a118-806d-8006-5946100ca7eb"><path d="M285.9462890625,398.6070556640625C286.16162109375,399.0899658203125,286.3333740234375,400.0159606933594,285.9752197265625,400.32208251953125C280.4210205078125,405.0694580078125,274.7982177734375,409.73651123046875,268.8397216796875,414.31988525390625C274.210693359375,409.065673828125,279.9334716796875,403.91375732421875,285.9462890625,398.6070556640625Z" style="fill: rgb(252, 193, 99);"/></g></g><g id="shape-41260768-a118-806d-8006-5946100ca7ec"><g class="fills" id="fills-41260768-a118-806d-8006-5946100ca7ec"><path d="M140.931884765625,523.5965576171875C140.87548828125,524.4905395507812,140.835693359375,525.924560546875,140.115234375,526.4877319335938C134.8895263671875,530.5726318359375,129.5263671875,534.4818725585938,123.8504638671875,538.3365478515625C129.207275390625,533.3953857421875,134.9202880859375,528.564453125,140.931884765625,523.5965576171875Z" style="fill: rgb(252, 193, 99);"/></g></g><g id="shape-41260768-a118-806d-8006-5946100ca7ed"><g class="fills" id="fills-41260768-a118-806d-8006-5946100ca7ed"><path d="M216.940185546875,459.60101318359375C216.7489013671875,460.59771728515625,216.573486328125,462.1422119140625,215.716796875,462.802490234375C210.9669189453125,466.4631042480469,206.0511474609375,469.90863037109375,200.8387451171875,473.31817626953125C205.8707275390625,468.7192077636719,211.256103515625,464.2298889160156,216.940185546875,459.60101318359375Z" style="fill: rgb(252, 193, 99);"/></g></g><g id="shape-41260768-a118-806d-8006-5946100cd12a"><g class="fills" id="fills-41260768-a118-806d-8006-5946100cd12a"><path d="M237.9208984375,441.59222412109375C237.5272216796875,442.8208312988281,237.16943359375,444.59228515625,236.0869140625,445.481201171875C232.2574462890625,448.6258239746094,228.1800537109375,451.46856689453125,223.8424072265625,454.32135009765625C228.2003173828125,450.05474853515625,232.912353515625,445.89251708984375,237.9208984375,441.59222412109375Z" style="fill: rgb(252, 193, 99);"/></g></g><g id="shape-41260768-a118-806d-8006-5946100cd12b"><g class="fills" id="fills-41260768-a118-806d-8006-5946100cd12b"><path d="M247.9447021484375,432.60516357421875C245.556396484375,435.11248779296875,242.8765869140625,437.7706604003906,239.8441162109375,440.3270263671875C242.2120361328125,437.7354431152344,244.9327392578125,435.2456970214844,247.9447021484375,432.60516357421875Z" style="fill: rgb(252, 193, 99);"/></g></g><g id="shape-41260768-a118-806d-8006-5946100cd12c"><g class="fills" id="fills-41260768-a118-806d-8006-5946100cd12c"><path d="M147.92724609375,517.5936279296875C146.2122802734375,519.4467163085938,144.2049560546875,521.439453125,141.8443603515625,523.3262329101562C143.5389404296875,521.3912353515625,145.5869140625,519.562255859375,147.92724609375,517.5936279296875Z" style="fill: rgb(252, 193, 99);"/></g></g><g id="shape-41260768-a118-806d-8006-5946100cd12d"><g class="fills" id="fills-41260768-a118-806d-8006-5946100cd12d"><path d="M291.9251708984375,393.580322265625C290.5435791015625,395.1068420410156,288.87109375,396.7657165527344,286.8427734375,398.32183837890625C288.2027587890625,396.7169189453125,289.91845703125,395.2148132324219,291.9251708984375,393.580322265625Z" style="fill: rgb(252, 193, 99);"/></g></g><g id="shape-41260768-a118-806d-8006-5946100d3ff6"><g class="fills" id="fills-41260768-a118-806d-8006-5946100d3ff6"><path d="M222.93701171875,454.5855712890625C221.5540771484375,456.1172180175781,219.8800048828125,457.781494140625,217.8514404296875,459.33599853515625C219.21337890625,457.7235412597656,220.9295654296875,456.2208557128906,222.93701171875,454.5855712890625Z" style="fill: rgb(252, 193, 99);"/></g></g><g id="shape-41260768-a118-806d-8006-5946100d3ff7"><g class="fills" id="fills-41260768-a118-806d-8006-5946100d3ff7"><path d="M239.0648193359375,440.5356140136719C239.31298828125,440.8037109375,239.195556640625,441.04949951171875,238.6781005859375,441.224609375C238.50537109375,440.9652099609375,238.645751953125,440.7516784667969,239.0648193359375,440.5356140136719Z" style="fill: rgb(252, 193, 99);"/></g></g><g id="shape-41260768-a118-806d-8006-5946100d3ff8"><g class="fills" id="fills-41260768-a118-806d-8006-5946100d3ff8"><path d="M268.057861328125,414.539306640625C268.3031005859375,414.8022766113281,268.1878662109375,415.0455322265625,267.6776123046875,415.220703125C267.5067138671875,414.9654846191406,267.6448974609375,414.7544860839844,268.057861328125,414.539306640625Z" style="fill: rgb(252, 193, 99);"/></g></g><g id="shape-41260768-a118-806d-8006-5946100d3ff9"><g class="fills" id="fills-41260768-a118-806d-8006-5946100d3ff9"><path d="M652.5643310546875,794.9442138671875C660.1363525390625,794.7907104492188,668.16796875,794.6560668945312,676.5467529296875,794.7242431640625C668.9373779296875,794.9390258789062,660.9805908203125,794.9510498046875,652.5643310546875,794.9442138671875Z" style="fill: rgb(255, 212, 143);"/></g></g><g id="shape-41260768-a118-806d-8006-5946100d3ffa"><g class="fills" id="fills-41260768-a118-806d-8006-5946100d3ffa"><path d="M834.9490966796875,809.4441528320312C834.7568359375,810.0524291992188,834.449951171875,810.361083984375,833.857421875,810.8343505859375C818.293701171875,795.5073852539062,803.04931640625,779.982421875,787.729248046875,764.5324096679688C767.2574462890625,743.8870849609375,746.72705078125,723.2999267578125,726.25,702.1611328125C726.5816650390625,701.4014892578125,726.8853759765625,701.1685180664062,727.18896484375,700.9354858398438C742.894287109375,716.504150390625,758.6558837890625,732.0167846679688,774.2906494140625,747.656005859375C793.1070556640625,766.4776611328125,811.8223876953125,785.4004516601562,830.55908203125,804.3016357421875C832.0726318359375,805.8283081054688,833.413330078125,807.5261840820312,834.9490966796875,809.4441528320312Z" style="fill: rgb(254, 189, 85);"/></g></g><g id="shape-41260768-a118-806d-8006-5946100d4cc2"><g class="fills" id="fills-41260768-a118-806d-8006-5946100d4cc2"><path d="M726.9984130859375,700.6549682617188C726.8853759765625,701.1685180664062,726.5816650390625,701.4014892578125,726.1036376953125,701.8621826171875C713.8614501953125,689.6389770507812,701.7935791015625,677.1880493164062,689.825927734375,664.3876953125C699.2030029296875,673.0584106445312,708.4996337890625,682.05859375,717.746337890625,691.10986328125C720.8326416015625,694.1309204101562,723.7911376953125,697.2825317382812,726.9984130859375,700.6549682617188Z" style="fill: rgb(250, 195, 114);"/></g></g><g id="shape-41260768-a118-806d-8006-5946100d4cc3"><g class="fills" id="fills-41260768-a118-806d-8006-5946100d4cc3"><path d="M682.085693359375,657.4429931640625C683.9189453125,657.9850463867188,685.913818359375,658.814453125,688.00341796875,659.897216796875C688.0760498046875,660.5780029296875,688.0540771484375,661.00537109375,687.9876708984375,661.7510375976562C686.0445556640625,660.6229858398438,684.1458740234375,659.1766357421875,682.085693359375,657.4429931640625Z" style="fill: rgb(250, 195, 114);"/></g></g><g id="shape-41260768-a118-806d-8006-5946100d4cc4"><g class="fills" id="fills-41260768-a118-806d-8006-5946100d4cc4"><path d="M688.89990234375,663.358154296875C689.22119140625,663.216064453125,689.51025390625,663.3925170898438,689.878662109375,663.8179931640625C689.5946044921875,663.9368896484375,689.2310791015625,663.8067626953125,688.89990234375,663.358154296875Z" style="fill: rgb(250, 195, 114);"/></g></g><g id="shape-41260768-a118-806d-8006-5946100d4cc5"><g class="fills" id="fills-41260768-a118-806d-8006-5946100d4cc5"><path d="M687.9034423828125,662.3533935546875C688.2166748046875,662.2169799804688,688.501220703125,662.398193359375,688.873779296875,662.8232421875C688.5994873046875,662.9351196289062,688.2373046875,662.8030395507812,687.9034423828125,662.3533935546875Z" style="fill: rgb(250, 195, 114);"/></g></g><g id="shape-41260768-a118-806d-8006-5946100d4cc6"><g class="fills" id="fills-41260768-a118-806d-8006-5946100d4cc6"><path d="M810.9947509765625,604.3631591796875C811.0230712890625,604.0455932617188,811.26953125,604.0081176757812,811.885986328125,603.9166259765625C813.11474609375,604.3703002929688,813.9736328125,604.8779296875,814.941162109375,605.683349609375C813.7708740234375,605.53515625,812.4918212890625,605.0891723632812,810.9947509765625,604.3631591796875Z" style="fill: rgb(252, 194, 105);"/></g></g><g id="shape-41260768-a118-806d-8006-5946100d4cc7"><g class="fills" id="fills-41260768-a118-806d-8006-5946100d4cc7"><path d="M805.9337158203125,600.308837890625C806.2115478515625,600.4929809570312,806.5125732421875,600.98046875,806.876708984375,601.750732421875C806.6121826171875,601.559814453125,806.28466796875,601.0859985351562,805.9337158203125,600.308837890625Z" style="fill: rgb(252, 194, 105);"/></g></g><g id="shape-41260768-a118-806d-8006-5946100db0dd"><g class="fills" id="fills-41260768-a118-806d-8006-5946100db0dd"><path d="M807.06396484375,602.2701416015625C807.2294921875,602.2188110351562,807.470458984375,602.424072265625,807.8492431640625,602.8303833007812C807.7236328125,602.8406372070312,807.4410400390625,602.67236328125,807.06396484375,602.2701416015625Z" style="fill: rgb(252, 194, 105);"/></g></g><g id="shape-41260768-a118-806d-8006-5946100db0de"><g class="fills" id="fills-41260768-a118-806d-8006-5946100db0de"><path d="M812.322509765625,603.171630859375C812.3216552734375,602.9238891601562,812.527587890625,602.511474609375,812.9156494140625,602.1122436523438C812.9083251953125,602.4192504882812,812.71875,602.7130737304688,812.322509765625,603.171630859375Z" style="fill: rgb(252, 194, 105);"/></g></g></g></g></g></g></g></g></g></svg>