<svg width="1086" xmlns="http://www.w3.org/2000/svg" height="1092" id="screenshot-41260768-a118-806d-8006-59478bc6e1b2" viewBox="0 0 1086 1092" xmlns:xlink="http://www.w3.org/1999/xlink" fill="none" version="1.1"><g id="shape-41260768-a118-806d-8006-59478bc6e1b2"><g class="frame-container-wrapper"><g class="frame-container-blur"><g class="frame-container-shadows"><g fill="none"><g class="fills" id="fills-41260768-a118-806d-8006-59478bc6e1b2"><rect rx="0" ry="0" x="0" y="0" width="1086.0000000000002" height="1092" transform="matrix(1.000000, 0.000000, 0.000000, 1.000000, 0.000000, 0.000000)" class="frame-background"/></g><g class="frame-children"><g id="shape-41260768-a118-806d-8006-594661b59574"><defs><filter id="filter-render-2" x="0" y="0" width="1" height="1" filterUnits="objectBoundingBox" color-interpolation-filters="sRGB"><feFlood flood-opacity="0" result="BackgroundImageFix"/><feBlend mode="normal" in="SourceGraphic" in2="BackgroundImageFix" result="shape"/><feColorMatrix in="SourceAlpha" type="matrix" values="0 0 0 0 0 0 0 0 0 0 0 0 0 0 0 0 0 0 127 0" result="hardAlpha"/><feMorphology radius="5" operator="erode" in="SourceAlpha" result="filter_41260768-a118-806d-8006-5946e2025809"/><feOffset dx="-5" dy="-5"/><feGaussianBlur stdDeviation="2"/><feComposite in2="hardAlpha" operator="arithmetic" k2="-1" k3="1"/><feColorMatrix type="matrix" values="0 0 0 0 0 0 0 0 0 0 0 0 0 0 0 0 0 0 0.2 0"/><feBlend mode="normal" in2="shape" result="filter_41260768-a118-806d-8006-5946e2025809"/></filter><filter id="filter-shadow-render-2" x="0" y="0" width="1" height="1" filterUnits="objectBoundingBox" color-interpolation-filters="sRGB"><feFlood flood-opacity="0" result="BackgroundImageFix"/><feBlend mode="normal" in="SourceGraphic" in2="BackgroundImageFix" result="shape"/><feColorMatrix in="SourceAlpha" type="matrix" values="0 0 0 0 0 0 0 0 0 0 0 0 0 0 0 0 0 0 127 0" result="hardAlpha"/><feMorphology radius="5" operator="erode" in="SourceAlpha" result="filter_41260768-a118-806d-8006-5946e2025809"/><feOffset dx="-5" dy="-5"/><feGaussianBlur stdDeviation="2"/><feComposite in2="hardAlpha" operator="arithmetic" k2="-1" k3="1"/><feColorMatrix type="matrix" values="0 0 0 0 0 0 0 0 0 0 0 0 0 0 0 0 0 0 0.2 0"/><feBlend mode="normal" in2="shape" result="filter_41260768-a118-806d-8006-5946e2025809"/></filter><linearGradient id="fill-color-gradient-render-2-0" x1="0.8992748182056572" y1="0.9150366598849828" x2="0.0360588877586084" y2="0.03396888210720495" gradientTransform=""><stop offset="0.34" stop-color="#0031c6" stop-opacity="1"/><stop offset="1" stop-color="#429fd5" stop-opacity="1"/></linearGradient><pattern patternUnits="userSpaceOnUse" x="5.999999999999886" y="0" width="1080" height="1080" id="fill-0-render-2"><g><rect width="1080" height="1080" style="fill: url(&quot;#fill-color-gradient-render-2-0&quot;);"/></g></pattern></defs><g class="fills" id="fills-41260768-a118-806d-8006-594661b59574"><rect width="1080" height="1080" x="5.999999999999886" transform="matrix(1.000000, 0.000000, 0.000000, 1.000000, 0.000000, 0.000000)" ry="50" fill="url(#fill-0-render-2)" rx="50" filter="url(#filter-render-2)" y="0"/></g></g><g id="shape-41260768-a118-806d-8006-594610066ba4" xml:space="preserve" rx="0" ry="0" style="fill: rgb(0, 0, 0);"><g id="shape-41260768-a118-806d-8006-5946100700a1" style="display: none;"><g class="fills" id="fills-41260768-a118-806d-8006-5946100700a1"><rect width="1080" height="1080" x="0" transform="matrix(1.000000, 0.000000, 0.000000, 1.000000, 0.000000, 0.000000)" style="fill: none;" ry="0" fill="none" rx="0" y="12"/></g></g><g id="shape-41260768-a118-806d-8006-594610088eef"><g class="fills" id="fills-41260768-a118-806d-8006-594610088eef"><path d="M566.059,148.222C574.184,149.140,582.303,150.111,590.436,150.961C599.955,151.955,609.539,152.469,619.000,153.845C652.081,158.656,683.994,167.881,714.999,180.250C758.302,197.524,797.910,221.127,833.612,251.067C877.139,287.567,911.987,331.144,937.566,381.910C956.172,418.837,969.199,457.682,975.137,498.700C977.133,512.487,978.201,526.408,979.538,541.080C979.555,546.919,979.728,551.944,979.900,556.970C979.956,559.031,980.012,561.093,979.816,563.959C979.586,569.808,979.608,574.851,979.631,579.895C977.042,636.761,962.345,690.435,936.586,741.071C921.863,770.010,903.744,796.719,882.558,821.399C831.213,881.213,767.622,922.827,693.580,948.835C663.792,959.299,633.043,966.088,601.710,969.973C591.321,971.261,580.819,971.643,569.568,972.342C563.185,972.466,557.602,972.687,552.020,972.908C547.982,972.961,543.944,973.014,539.079,972.809C532.709,972.419,527.165,972.286,521.620,972.153C505.296,970.519,488.902,969.385,472.661,967.141C442.700,963.003,413.741,954.746,385.464,944.107C341.641,927.617,301.342,904.796,264.922,875.415C224.468,842.780,191.064,803.976,165.037,758.870C142.141,719.191,126.449,676.829,118.224,631.843C115.156,615.064,114.116,597.915,112.374,580.145C112.431,574.911,112.264,570.465,112.096,566.020C112.042,562.313,111.988,558.605,112.192,554.079C112.375,549.165,112.301,545.068,112.227,540.972C115.030,484.334,129.512,430.769,155.172,380.289C169.881,351.351,188.010,324.644,209.138,299.915C249.941,252.160,299.223,215.710,355.995,189.295C393.146,172.009,432.026,160.046,472.578,153.834C484.157,152.060,495.824,150.837,507.470,149.532C513.330,148.875,519.233,148.600,525.918,148.369C531.806,148.424,536.891,148.262,541.977,148.099C544.040,148.046,546.103,147.992,548.970,148.192C555.202,148.371,560.631,148.297,566.059,148.222ZM936.433,731.094C936.678,730.327,936.924,729.560,937.484,728.220C938.349,726.610,939.433,725.080,940.046,723.380C947.707,702.132,956.343,681.163,962.642,659.515C970.381,632.914,974.755,605.523,975.347,577.686C975.615,565.062,976.409,552.393,975.682,539.818C974.928,526.774,972.849,513.785,970.952,500.831C965.493,463.556,954.393,427.955,938.294,393.935C916.206,347.257,886.294,306.288,848.604,270.916C831.456,254.823,813.266,240.120,793.782,227.009C764.953,207.609,734.184,191.999,701.585,179.931C654.409,162.466,605.596,153.492,555.424,152.165C526.309,151.394,497.346,153.779,468.616,158.964C444.341,163.345,420.500,169.300,397.272,177.559C325.565,203.055,264.173,243.822,214.131,301.425C196.275,321.980,180.665,344.079,167.274,367.745C144.266,408.406,128.836,451.824,121.428,497.934C119.089,512.491,118.527,527.333,116.751,542.803C116.491,551.146,116.081,559.489,116.032,567.834C116.008,572.062,116.635,576.293,116.901,581.383C117.905,592.294,118.598,603.243,119.971,614.107C124.341,648.685,133.781,681.934,147.553,713.893C175.577,778.927,217.767,833.114,273.734,876.439C349.407,935.017,435.606,964.745,530.850,968.768C561.984,970.083,592.948,967.504,623.701,962.133C672.986,953.524,719.500,937.185,763.213,912.924C791.218,897.382,817.232,878.989,841.594,857.056C843.170,856.032,844.818,855.098,846.281,853.933C846.763,853.549,846.770,852.568,847.416,851.360C851.896,847.042,856.376,842.723,861.462,838.086C862.043,837.400,862.624,836.713,863.754,835.671C876.487,820.215,889.219,804.758,902.408,789.016C902.779,788.340,903.150,787.663,903.942,786.517C904.682,785.430,905.496,784.385,906.152,783.249C916.095,766.012,926.018,748.763,936.433,731.094ZZ" style="fill: rgb(95, 163, 251);"/></g></g><g id="shape-41260768-a118-806d-8006-594610088ef0"><g class="fills" id="fills-41260768-a118-806d-8006-594610088ef0"><path d="M552.485,972.964C557.602,972.687,563.185,972.466,569.127,972.269C563.975,972.535,558.462,972.777,552.485,972.964ZZ" style="fill: rgb(131, 181, 250);"/></g></g><g id="shape-41260768-a118-806d-8006-594610088ef1"><g class="fills" id="fills-41260768-a118-806d-8006-594610088ef1"><path d="M522.001,972.347C527.165,972.286,532.709,972.419,538.620,972.733C533.452,972.790,527.917,972.666,522.001,972.347ZZ" style="fill: rgb(131, 181, 250);"/></g></g><g id="shape-41260768-a118-806d-8006-59461008e9a7"><g class="fills" id="fills-41260768-a118-806d-8006-59461008e9a7"><path d="M565.591,148.136C560.631,148.297,555.202,148.371,549.406,148.273C554.400,148.083,559.761,148.067,565.591,148.136ZZ" style="fill: rgb(139, 186, 251);"/></g></g><g id="shape-41260768-a118-806d-8006-59461008e9a8"><g class="fills" id="fills-41260768-a118-806d-8006-59461008e9a8"><path d="M541.513,148.049C536.891,148.262,531.806,148.424,526.344,148.410C530.995,148.155,536.022,148.077,541.513,148.049ZZ" style="fill: rgb(139, 186, 251);"/></g></g><g id="shape-41260768-a118-806d-8006-5946100a5495"><g class="fills" id="fills-41260768-a118-806d-8006-5946100a5495"><path d="M979.737,579.445C979.608,574.851,979.586,569.808,979.735,564.395C979.886,569.016,979.865,574.006,979.737,579.445ZZ" style="fill: rgb(139, 186, 250);"/></g></g><g id="shape-41260768-a118-806d-8006-5946100a5496"><g class="fills" id="fills-41260768-a118-806d-8006-5946100a5496"><path d="M979.951,556.507C979.728,551.944,979.555,546.919,979.505,541.514C979.751,546.105,979.877,551.075,979.951,556.507ZZ" style="fill: rgb(139, 186, 250);"/></g></g><g id="shape-41260768-a118-806d-8006-5946100a5497"><g class="fills" id="fills-41260768-a118-806d-8006-5946100a5497"><path d="M112.045,566.482C112.264,570.465,112.431,574.911,112.386,579.716C112.114,575.699,112.053,571.321,112.045,566.482ZZ" style="fill: rgb(132, 183, 251);"/></g></g><g id="shape-41260768-a118-806d-8006-5946100aa784"><g class="fills" id="fills-41260768-a118-806d-8006-5946100aa784"><path d="M112.128,541.431C112.301,545.068,112.375,549.165,112.271,553.623C112.071,549.953,112.051,545.921,112.128,541.431ZZ" style="fill: rgb(132, 183, 251);"/></g></g><g id="shape-41260768-a118-806d-8006-5946100aeea2"><g class="fills" id="fills-41260768-a118-806d-8006-5946100aeea2"><path d="M117.152,542.045C118.527,527.333,119.089,512.491,121.428,497.934C128.836,451.824,144.266,408.406,167.274,367.745C180.665,344.079,196.275,321.980,214.131,301.425C264.173,243.822,325.565,203.055,397.272,177.559C420.500,169.300,444.341,163.345,468.616,158.964C497.346,153.779,526.309,151.394,555.424,152.165C605.596,153.492,654.409,162.466,701.585,179.931C734.184,191.999,764.953,207.609,793.782,227.009C813.266,240.120,831.456,254.823,848.604,270.916C886.294,306.288,916.206,347.257,938.294,393.935C954.393,427.955,965.493,463.556,970.952,500.831C972.849,513.785,974.928,526.774,975.682,539.818C976.409,552.393,975.615,565.062,975.347,577.686C974.755,605.523,970.381,632.914,962.642,659.515C956.343,681.163,947.707,702.132,940.046,723.380C939.433,725.080,938.349,726.610,936.949,728.569C924.138,724.123,913.329,716.858,905.196,706.671C892.618,690.916,880.722,674.590,869.056,658.138C857.480,641.813,847.787,624.070,832.314,610.785C814.261,595.284,793.118,593.045,772.379,605.031C756.137,614.419,744.098,628.535,731.123,641.606C726.564,646.199,722.153,651.013,717.132,655.052C711.279,659.761,704.257,662.523,696.802,659.812C690.847,657.647,684.875,654.807,679.804,651.057C663.518,639.012,650.440,623.694,637.569,608.187C615.416,581.494,595.384,553.453,580.053,522.170C567.450,496.450,550.885,473.349,531.701,452.113C522.002,441.377,512.364,430.585,502.591,419.917C484.053,399.683,465.978,378.986,446.700,359.481C427.919,340.479,404.879,334.564,378.711,341.603C358.889,346.935,341.458,356.922,324.950,368.654C313.895,376.510,303.292,385.001,292.379,393.223C292.272,393.238,292.216,393.448,291.925,393.580C289.918,395.215,288.203,396.717,286.384,398.234C286.281,398.249,286.236,398.452,285.946,398.607C279.934,403.914,274.211,409.066,268.381,414.238C268.274,414.259,268.240,414.475,268.058,414.539C267.645,414.754,267.507,414.965,267.358,415.243C267.254,415.249,267.221,415.454,266.928,415.599C260.588,421.234,254.539,426.723,248.385,432.228C248.278,432.243,248.236,432.454,247.945,432.605C244.933,435.246,242.212,437.735,239.386,440.243C239.281,440.260,239.250,440.472,239.065,440.536C238.646,440.752,238.505,440.965,238.355,441.244C238.250,441.248,238.217,441.454,237.921,441.592C232.912,445.893,228.200,450.055,223.381,454.230C223.274,454.243,223.228,454.453,222.937,454.586C220.930,456.221,219.213,457.724,217.391,459.239C217.284,459.252,217.239,459.461,216.940,459.601C211.256,464.230,205.871,468.719,200.375,473.222C200.264,473.235,200.208,473.451,199.903,473.575C191.895,480.204,184.191,486.708,176.379,493.225C176.271,493.238,176.223,493.451,175.923,493.584C166.576,501.548,157.530,509.378,148.375,517.225C148.267,517.241,148.220,517.454,147.927,517.594C145.587,519.562,143.539,521.391,141.383,523.233C141.275,523.246,141.230,523.460,140.932,523.597C134.920,528.564,129.207,533.395,123.387,538.242C123.281,538.258,123.235,538.469,122.944,538.615C120.820,539.856,118.986,540.950,117.152,542.045ZZ" style="fill: rgb(31, 201, 202);"/></g></g><g id="shape-41260768-a118-806d-8006-5946100b085f"><g class="fills" id="fills-41260768-a118-806d-8006-5946100b085f"><path d="M840.951,857.415C817.232,878.989,791.218,897.382,763.213,912.924C719.500,937.185,672.986,953.524,623.701,962.133C592.948,967.504,561.984,970.083,530.850,968.768C435.606,964.745,349.407,935.017,273.734,876.439C217.767,833.114,175.577,778.927,147.553,713.893C133.781,681.934,124.341,648.685,119.971,614.107C118.598,603.243,117.905,592.294,116.992,580.449C117.010,570.744,117.034,561.970,116.822,553.203C116.706,548.374,116.921,543.937,122.010,541.385C122.725,541.026,122.841,539.471,123.235,538.469C123.235,538.469,123.281,538.258,123.744,538.352C129.526,534.482,134.889,530.573,140.115,526.488C140.836,525.925,140.876,524.491,141.230,523.460C141.230,523.460,141.275,523.246,141.736,523.339C144.205,521.439,146.212,519.447,148.220,517.454C148.220,517.454,148.267,517.241,148.728,517.329C149.821,517.286,150.627,517.361,151.061,516.995C159.112,510.207,167.146,503.399,175.088,496.484C175.804,495.860,175.860,494.480,176.223,493.451C176.223,493.451,176.271,493.238,176.733,493.331C182.961,489.064,188.850,484.852,194.436,480.271C196.700,478.413,198.303,475.749,200.207,473.451C200.208,473.451,200.264,473.235,200.728,473.332C206.051,469.909,210.967,466.463,215.717,462.802C216.574,462.142,216.749,460.598,217.239,459.461C217.239,459.461,217.284,459.252,217.745,459.349C219.880,457.781,221.554,456.117,223.228,454.453C223.228,454.453,223.274,454.243,223.736,454.334C228.180,451.469,232.257,448.626,236.087,445.481C237.169,444.592,237.527,442.821,238.217,441.454C238.217,441.454,238.250,441.248,238.574,441.229C239.196,441.050,239.313,440.804,239.250,440.472C239.250,440.472,239.281,440.260,239.739,440.345C242.877,437.771,245.556,435.112,248.236,432.454C248.236,432.454,248.278,432.243,248.732,432.335C255.205,427.253,261.232,422.089,267.211,416.871C267.447,416.665,267.228,415.938,267.221,415.454C267.221,415.454,267.254,415.249,267.574,415.227C268.188,415.046,268.303,414.802,268.240,414.475C268.240,414.475,268.274,414.259,268.733,414.341C274.798,409.737,280.421,405.069,285.975,400.322C286.333,400.016,286.162,399.090,286.236,398.452C286.236,398.452,286.281,398.249,286.740,398.337C288.871,396.766,290.544,395.107,292.216,393.448C292.216,393.448,292.272,393.238,292.733,393.334C296.083,391.593,299.105,389.935,301.838,387.891C320.120,374.221,338.278,360.311,359.257,350.907C371.160,345.571,383.286,340.467,396.944,342.271C396.993,342.465,397.044,342.864,397.251,343.135C407.557,350.417,418.274,356.694,427.622,364.591C446.674,380.687,459.845,401.332,469.215,424.244C472.771,432.939,475.860,442.276,476.651,451.535C477.620,462.858,474.424,474.285,468.088,483.811C458.617,498.051,448.389,511.840,437.744,525.232C427.117,538.602,419.321,553.061,418.009,570.205C416.417,591.007,421.440,610.329,432.122,628.385C447.236,653.932,467.310,672.817,496.999,680.018C511.853,683.621,523.687,692.133,532.012,704.894C538.542,714.903,544.206,725.474,550.334,735.749C556.802,746.596,562.829,757.759,570.017,768.111C579.631,781.954,593.318,790.124,609.896,793.454C623.898,796.267,637.971,796.292,652.564,794.944C660.981,794.951,668.937,794.939,677.323,794.974C698.143,796.480,717.460,801.315,734.247,813.611C744.834,821.367,755.149,829.495,765.684,837.324C784.765,851.501,805.716,859.290,829.952,856.278C833.516,855.836,837.280,856.996,840.951,857.415ZZ" style="fill: rgb(255, 169, 31);"/></g></g><g id="shape-41260768-a118-806d-8006-5946100b6f5c"><g class="fills" id="fills-41260768-a118-806d-8006-5946100b6f5c"><path d="M397.044,342.864C397.044,342.864,396.993,342.465,397.243,341.962C398.303,341.295,399.107,341.013,399.920,340.988C417.527,340.446,431.884,348.265,443.994,359.864C456.947,372.270,469.018,385.623,481.106,398.898C497.444,416.840,513.332,435.191,529.595,453.202C547.712,473.266,563.842,494.827,575.681,519.108C591.961,552.498,612.482,583.016,636.646,610.963C650.720,627.241,666.765,641.815,682.086,657.443C684.146,659.177,686.044,660.623,687.971,662.051C687.999,662.032,687.932,662.036,687.903,662.353C688.237,662.803,688.599,662.935,688.976,663.038C688.989,663.008,688.932,663.040,688.900,663.358C689.231,663.807,689.595,663.937,689.971,664.036C689.984,664.006,689.926,664.038,689.826,664.388C701.794,677.188,713.861,689.639,726.076,702.389C746.727,723.300,767.258,743.887,787.729,764.532C803.049,779.982,818.294,795.507,833.783,811.279C842.948,820.508,851.902,829.456,860.856,838.405C856.376,842.723,851.896,847.042,846.753,851.626C840.004,852.605,833.936,853.589,827.830,853.977C810.940,855.052,794.863,851.410,780.653,842.474C767.747,834.357,755.665,824.882,743.523,815.607C722.689,799.692,699.376,791.547,673.114,791.937C660.453,792.124,647.791,792.294,635.129,792.333C617.605,792.387,600.438,790.592,585.895,779.518C574.299,770.688,566.284,758.793,559.325,746.193C552.978,734.700,547.203,722.877,540.551,711.567C529.933,693.511,515.098,680.680,494.122,675.767C488.990,674.565,483.953,672.558,479.187,670.266C451.359,656.880,435.069,633.453,425.133,605.407C416.021,579.688,419.186,555.021,435.904,532.844C444.200,521.838,453.122,511.301,461.355,500.250C471.974,485.998,479.534,470.469,478.938,452.066C478.481,437.955,473.251,425.283,467.142,412.841C452.835,383.707,432.325,360.386,403.605,344.747C401.655,343.685,399.242,343.472,397.044,342.864ZZ" style="fill: rgb(202, 87, 31);"/></g></g><g id="shape-41260768-a118-806d-8006-5946100bbf62"><g class="fills" id="fills-41260768-a118-806d-8006-5946100bbf62"><path d="M901.952,789.301C889.219,804.758,876.487,820.215,863.119,835.823C860.845,834.636,859.094,833.411,857.586,831.938C850.043,824.575,842.565,817.148,834.949,809.444C833.413,807.526,832.073,805.828,830.559,804.302C811.822,785.400,793.107,766.478,774.291,747.656C758.656,732.017,742.894,716.504,726.998,700.655C723.791,697.283,720.833,694.131,717.746,691.110C708.500,682.059,699.203,673.058,689.926,664.038C689.926,664.038,689.984,664.006,689.891,663.787C689.510,663.393,689.221,663.216,688.932,663.040C688.932,663.040,688.989,663.008,688.888,662.794C688.501,662.398,688.217,662.217,687.932,662.036C687.932,662.036,687.999,662.032,688.016,661.732C688.054,661.005,688.076,660.578,688.470,660.176C703.216,666.314,715.075,662.025,725.390,651.359C728.746,647.889,732.033,644.351,735.459,640.951C743.597,632.877,751.476,624.503,760.050,616.918C773.038,605.427,787.851,598.115,805.934,600.309C806.285,601.086,806.612,601.560,806.948,602.029C806.956,602.025,806.969,602.036,807.064,602.270C807.441,602.672,807.724,602.841,808.269,603.162C809.280,603.571,810.028,603.827,810.995,604.363C812.492,605.089,813.771,605.535,815.024,605.990C814.999,606.000,815.015,605.948,815.003,606.303C816.031,607.903,816.985,609.235,818.126,610.379C826.704,618.977,832.237,629.152,831.761,641.443C831.359,651.834,830.339,662.319,828.306,672.506C824.287,692.647,828.797,709.747,844.124,723.676C854.338,732.958,864.688,742.092,874.885,751.392C886.607,762.083,895.232,775.021,901.952,789.301ZZ" style="fill: rgb(254, 169, 30);"/></g></g><g id="shape-41260768-a118-806d-8006-5946100bbf63"><g class="fills" id="fills-41260768-a118-806d-8006-5946100bbf63"><path d="M935.946,731.516C926.018,748.763,916.095,766.012,906.152,783.249C905.496,784.385,904.682,785.430,903.531,786.440C895.920,771.544,886.392,758.478,874.085,747.454C863.443,737.922,852.593,728.592,842.413,718.584C833.456,709.777,828.215,698.812,829.109,685.935C829.657,678.051,831.381,670.248,832.601,662.412C834.475,650.372,835.687,638.326,831.101,626.601C827.803,618.170,823.463,610.426,815.015,605.948C815.015,605.948,814.999,606.000,814.916,605.693C813.974,604.878,813.115,604.370,812.239,603.726C812.222,603.590,812.116,603.336,812.322,603.172C812.719,602.713,812.908,602.419,813.439,602.205C827.955,607.792,838.200,618.148,846.733,630.144C861.714,651.205,876.014,672.749,890.940,693.850C902.109,709.638,915.441,723.089,934.158,729.987C934.848,730.242,935.354,730.995,935.946,731.516ZZ" style="fill: rgb(202, 87, 32);"/></g></g><g id="shape-41260768-a118-806d-8006-5946100bc529"><g class="fills" id="fills-41260768-a118-806d-8006-5946100bc529"><path d="M397.251,343.135C399.242,343.472,401.655,343.685,403.605,344.747C432.325,360.386,452.835,383.707,467.142,412.841C473.251,425.283,478.481,437.955,478.938,452.066C479.534,470.469,471.974,485.998,461.355,500.250C453.122,511.301,444.200,521.838,435.904,532.844C419.186,555.021,416.021,579.688,425.133,605.407C435.069,633.453,451.359,656.880,479.187,670.266C483.953,672.558,488.990,674.565,494.122,675.767C515.098,680.680,529.933,693.511,540.551,711.567C547.203,722.877,552.978,734.700,559.325,746.193C566.284,758.793,574.299,770.688,585.895,779.518C600.438,790.592,617.605,792.387,635.129,792.333C647.791,792.294,660.453,792.124,673.114,791.937C699.376,791.547,722.689,799.692,743.523,815.607C755.665,824.882,767.747,834.357,780.653,842.474C794.863,851.410,810.940,855.052,827.830,853.977C833.936,853.589,840.004,852.605,846.542,851.876C846.770,852.568,846.763,853.549,846.281,853.933C844.818,855.098,843.170,856.032,841.273,857.236C837.280,856.996,833.516,855.836,829.952,856.278C805.716,859.290,784.765,851.501,765.684,837.324C755.149,829.495,744.834,821.367,734.247,813.611C717.460,801.315,698.143,796.480,676.975,794.772C668.168,794.656,660.136,794.791,652.105,794.925C637.971,796.292,623.898,796.267,609.896,793.454C593.318,790.124,579.631,781.954,570.017,768.111C562.829,757.759,556.802,746.596,550.334,735.749C544.206,725.474,538.542,714.903,532.012,704.894C523.687,692.133,511.853,683.621,496.999,680.018C467.310,672.817,447.236,653.932,432.122,628.385C421.440,610.329,416.417,591.007,418.009,570.205C419.321,553.061,427.117,538.602,437.744,525.232C448.389,511.840,458.617,498.051,468.088,483.811C474.424,474.285,477.620,462.858,476.651,451.535C475.860,442.276,472.771,432.939,469.215,424.244C459.845,401.332,446.674,380.687,427.622,364.591C418.274,356.694,407.557,350.417,397.251,343.135ZZ" style="fill: rgb(253, 190, 95);"/></g></g><g id="shape-41260768-a118-806d-8006-5946100c24be"><g class="fills" id="fills-41260768-a118-806d-8006-5946100c24be"><path d="M936.189,731.305C935.354,730.995,934.848,730.242,934.158,729.987C915.441,723.089,902.109,709.638,890.940,693.850C876.014,672.749,861.714,651.205,846.733,630.144C838.200,618.148,827.955,607.792,813.256,602.192C812.528,602.511,812.322,602.924,812.116,603.336C812.116,603.336,812.222,603.590,811.869,603.780C811.270,604.008,811.023,604.046,810.777,604.083C810.028,603.827,809.280,603.571,808.112,602.983C807.470,602.424,807.230,602.219,806.969,602.036C806.969,602.036,806.956,602.025,806.885,601.747C806.513,600.980,806.212,600.493,805.910,600.005C787.851,598.115,773.038,605.427,760.050,616.918C751.476,624.503,743.597,632.877,735.459,640.951C732.033,644.351,728.746,647.889,725.390,651.359C715.075,662.025,703.216,666.314,688.375,659.922C685.914,658.814,683.919,657.985,681.924,657.156C666.765,641.815,650.720,627.241,636.646,610.963C612.482,583.016,591.961,552.498,575.681,519.108C563.842,494.827,547.712,473.266,529.595,453.202C513.332,435.191,497.444,416.840,481.106,398.898C469.018,385.623,456.947,372.270,443.994,359.864C431.884,348.265,417.527,340.446,399.920,340.988C399.107,341.013,398.303,341.295,397.194,341.767C383.286,340.467,371.160,345.571,359.257,350.907C338.278,360.311,320.120,374.221,301.838,387.891C299.105,389.935,296.083,391.593,292.840,393.319C303.292,385.001,313.895,376.510,324.950,368.654C341.458,356.922,358.889,346.935,378.711,341.603C404.879,334.564,427.919,340.479,446.700,359.481C465.978,378.986,484.053,399.683,502.591,419.917C512.364,430.585,522.002,441.377,531.701,452.113C550.885,473.349,567.450,496.450,580.053,522.170C595.384,553.453,615.416,581.494,637.569,608.187C650.440,623.694,663.518,639.012,679.804,651.057C684.875,654.807,690.847,657.647,696.802,659.812C704.257,662.523,711.279,659.761,717.132,655.052C722.153,651.013,726.564,646.199,731.123,641.606C744.098,628.535,756.137,614.419,772.379,605.031C793.118,593.045,814.261,595.284,832.314,610.785C847.787,624.070,857.480,641.813,869.056,658.138C880.722,674.590,892.618,690.916,905.196,706.671C913.329,716.858,924.138,724.123,936.791,728.856C936.924,729.560,936.678,730.327,936.189,731.305ZZ" style="fill: rgb(252, 193, 99);"/></g></g><g id="shape-41260768-a118-806d-8006-5946100c24bf"><g class="fills" id="fills-41260768-a118-806d-8006-5946100c24bf"><path d="M815.003,606.303C823.463,610.426,827.803,618.170,831.101,626.601C835.687,638.326,834.475,650.372,832.601,662.412C831.381,670.248,829.657,678.051,829.109,685.935C828.215,698.812,833.456,709.777,842.413,718.584C852.593,728.592,863.443,737.922,874.085,747.454C886.392,758.478,895.920,771.544,903.321,786.674C903.150,787.663,902.779,788.340,902.180,789.159C895.232,775.021,886.607,762.083,874.885,751.392C864.688,742.092,854.338,732.958,844.124,723.676C828.797,709.747,824.287,692.647,828.306,672.506C830.339,662.319,831.359,651.834,831.761,641.443C832.237,629.152,826.704,618.977,818.126,610.379C816.985,609.235,816.031,607.903,815.003,606.303ZZ" style="fill: rgb(252, 194, 105);"/></g></g><g id="shape-41260768-a118-806d-8006-5946100c4357"><g class="fills" id="fills-41260768-a118-806d-8006-5946100c4357"><path d="M835.064,809.744C842.565,817.148,850.043,824.575,857.586,831.938C859.094,833.411,860.845,834.636,862.845,836.001C862.624,836.713,862.043,837.400,861.159,838.245C851.902,829.456,842.948,820.508,834.068,811.115C834.450,810.361,834.757,810.052,835.064,809.744ZZ" style="fill: rgb(254, 204, 121);"/></g></g><g id="shape-41260768-a118-806d-8006-5946100c4358"><g class="fills" id="fills-41260768-a118-806d-8006-5946100c4358"><path d="M122.944,538.615C122.841,539.471,122.725,541.026,122.010,541.385C116.921,543.937,116.706,548.374,116.822,553.203C117.034,561.970,117.010,570.744,117.026,580.019C116.635,576.293,116.008,572.062,116.032,567.834C116.081,559.489,116.491,551.146,116.951,542.424C118.986,540.950,120.820,539.856,122.944,538.615ZZ" style="fill: rgb(252, 193, 99);"/></g></g><g id="shape-41260768-a118-806d-8006-5946100c4359"><g class="fills" id="fills-41260768-a118-806d-8006-5946100c4359"><path d="M175.923,493.584C175.860,494.480,175.804,495.860,175.088,496.484C167.146,503.399,159.112,510.207,151.061,516.995C150.627,517.361,149.821,517.286,148.836,517.313C157.530,509.378,166.576,501.548,175.923,493.584ZZ" style="fill: rgb(252, 193, 99);"/></g></g><g id="shape-41260768-a118-806d-8006-5946100ca7e9"><g class="fills" id="fills-41260768-a118-806d-8006-5946100ca7e9"><path d="M199.903,473.575C198.303,475.749,196.700,478.413,194.436,480.271C188.850,484.852,182.961,489.064,176.841,493.318C184.191,486.708,191.895,480.204,199.903,473.575ZZ" style="fill: rgb(252, 193, 99);"/></g></g><g id="shape-41260768-a118-806d-8006-5946100ca7ea"><g class="fills" id="fills-41260768-a118-806d-8006-5946100ca7ea"><path d="M266.928,415.599C267.228,415.938,267.447,416.665,267.211,416.871C261.232,422.089,255.205,427.253,248.838,432.320C254.539,426.723,260.588,421.234,266.928,415.599ZZ" style="fill: rgb(252, 193, 99);"/></g></g><g id="shape-41260768-a118-806d-8006-5946100ca7eb"><g class="fills" id="fills-41260768-a118-806d-8006-5946100ca7eb"><path d="M285.946,398.607C286.162,399.090,286.333,400.016,285.975,400.322C280.421,405.069,274.798,409.737,268.840,414.320C274.211,409.066,279.934,403.914,285.946,398.607ZZ" style="fill: rgb(252, 193, 99);"/></g></g><g id="shape-41260768-a118-806d-8006-5946100ca7ec"><g class="fills" id="fills-41260768-a118-806d-8006-5946100ca7ec"><path d="M140.932,523.597C140.876,524.491,140.836,525.925,140.115,526.488C134.889,530.573,129.526,534.482,123.850,538.337C129.207,533.395,134.920,528.564,140.932,523.597ZZ" style="fill: rgb(252, 193, 99);"/></g></g><g id="shape-41260768-a118-806d-8006-5946100ca7ed"><g class="fills" id="fills-41260768-a118-806d-8006-5946100ca7ed"><path d="M216.940,459.601C216.749,460.598,216.574,462.142,215.717,462.802C210.967,466.463,206.051,469.909,200.839,473.318C205.871,468.719,211.256,464.230,216.940,459.601ZZ" style="fill: rgb(252, 193, 99);"/></g></g><g id="shape-41260768-a118-806d-8006-5946100cd12a"><g class="fills" id="fills-41260768-a118-806d-8006-5946100cd12a"><path d="M237.921,441.592C237.527,442.821,237.169,444.592,236.087,445.481C232.257,448.626,228.180,451.469,223.842,454.321C228.200,450.055,232.912,445.893,237.921,441.592ZZ" style="fill: rgb(252, 193, 99);"/></g></g><g id="shape-41260768-a118-806d-8006-5946100cd12b"><g class="fills" id="fills-41260768-a118-806d-8006-5946100cd12b"><path d="M247.945,432.605C245.556,435.112,242.877,437.771,239.844,440.327C242.212,437.735,244.933,435.246,247.945,432.605ZZ" style="fill: rgb(252, 193, 99);"/></g></g><g id="shape-41260768-a118-806d-8006-5946100cd12c"><g class="fills" id="fills-41260768-a118-806d-8006-5946100cd12c"><path d="M147.927,517.594C146.212,519.447,144.205,521.439,141.844,523.326C143.539,521.391,145.587,519.562,147.927,517.594ZZ" style="fill: rgb(252, 193, 99);"/></g></g><g id="shape-41260768-a118-806d-8006-5946100cd12d"><g class="fills" id="fills-41260768-a118-806d-8006-5946100cd12d"><path d="M291.925,393.580C290.544,395.107,288.871,396.766,286.843,398.322C288.203,396.717,289.918,395.215,291.925,393.580ZZ" style="fill: rgb(252, 193, 99);"/></g></g><g id="shape-41260768-a118-806d-8006-5946100d3ff6"><g class="fills" id="fills-41260768-a118-806d-8006-5946100d3ff6"><path d="M222.937,454.586C221.554,456.117,219.880,457.781,217.852,459.336C219.213,457.724,220.930,456.221,222.937,454.586ZZ" style="fill: rgb(252, 193, 99);"/></g></g><g id="shape-41260768-a118-806d-8006-5946100d3ff7"><g class="fills" id="fills-41260768-a118-806d-8006-5946100d3ff7"><path d="M239.065,440.536C239.313,440.804,239.196,441.050,238.678,441.225C238.505,440.965,238.646,440.752,239.065,440.536ZZ" style="fill: rgb(252, 193, 99);"/></g></g><g id="shape-41260768-a118-806d-8006-5946100d3ff8"><g class="fills" id="fills-41260768-a118-806d-8006-5946100d3ff8"><path d="M268.058,414.539C268.303,414.802,268.188,415.046,267.678,415.221C267.507,414.965,267.645,414.754,268.058,414.539ZZ" style="fill: rgb(252, 193, 99);"/></g></g><g id="shape-41260768-a118-806d-8006-5946100d3ff9"><g class="fills" id="fills-41260768-a118-806d-8006-5946100d3ff9"><path d="M652.564,794.944C660.136,794.791,668.168,794.656,676.547,794.724C668.937,794.939,660.981,794.951,652.564,794.944ZZ" style="fill: rgb(255, 212, 143);"/></g></g><g id="shape-41260768-a118-806d-8006-5946100d3ffa"><g class="fills" id="fills-41260768-a118-806d-8006-5946100d3ffa"><path d="M834.949,809.444C834.757,810.052,834.450,810.361,833.857,810.834C818.294,795.507,803.049,779.982,787.729,764.532C767.258,743.887,746.727,723.300,726.250,702.161C726.582,701.401,726.885,701.169,727.189,700.935C742.894,716.504,758.656,732.017,774.291,747.656C793.107,766.478,811.822,785.400,830.559,804.302C832.073,805.828,833.413,807.526,834.949,809.444ZZ" style="fill: rgb(254, 189, 85);"/></g></g><g id="shape-41260768-a118-806d-8006-5946100d4cc2"><g class="fills" id="fills-41260768-a118-806d-8006-5946100d4cc2"><path d="M726.998,700.655C726.885,701.169,726.582,701.401,726.104,701.862C713.861,689.639,701.794,677.188,689.826,664.388C699.203,673.058,708.500,682.059,717.746,691.110C720.833,694.131,723.791,697.283,726.998,700.655ZZ" style="fill: rgb(250, 195, 114);"/></g></g><g id="shape-41260768-a118-806d-8006-5946100d4cc3"><g class="fills" id="fills-41260768-a118-806d-8006-5946100d4cc3"><path d="M682.086,657.443C683.919,657.985,685.914,658.814,688.003,659.897C688.076,660.578,688.054,661.005,687.988,661.751C686.044,660.623,684.146,659.177,682.086,657.443ZZ" style="fill: rgb(250, 195, 114);"/></g></g><g id="shape-41260768-a118-806d-8006-5946100d4cc4"><g class="fills" id="fills-41260768-a118-806d-8006-5946100d4cc4"><path d="M688.900,663.358C689.221,663.216,689.510,663.393,689.879,663.818C689.595,663.937,689.231,663.807,688.900,663.358ZZ" style="fill: rgb(250, 195, 114);"/></g></g><g id="shape-41260768-a118-806d-8006-5946100d4cc5"><g class="fills" id="fills-41260768-a118-806d-8006-5946100d4cc5"><path d="M687.903,662.353C688.217,662.217,688.501,662.398,688.874,662.823C688.599,662.935,688.237,662.803,687.903,662.353ZZ" style="fill: rgb(250, 195, 114);"/></g></g><g id="shape-41260768-a118-806d-8006-5946100d4cc6"><g class="fills" id="fills-41260768-a118-806d-8006-5946100d4cc6"><path d="M810.995,604.363C811.023,604.046,811.270,604.008,811.886,603.917C813.115,604.370,813.974,604.878,814.941,605.683C813.771,605.535,812.492,605.089,810.995,604.363ZZ" style="fill: rgb(252, 194, 105);"/></g></g><g id="shape-41260768-a118-806d-8006-5946100d4cc7"><g class="fills" id="fills-41260768-a118-806d-8006-5946100d4cc7"><path d="M805.934,600.309C806.212,600.493,806.513,600.980,806.877,601.751C806.612,601.560,806.285,601.086,805.934,600.309ZZ" style="fill: rgb(252, 194, 105);"/></g></g><g id="shape-41260768-a118-806d-8006-5946100db0dd"><g class="fills" id="fills-41260768-a118-806d-8006-5946100db0dd"><path d="M807.064,602.270C807.230,602.219,807.470,602.424,807.849,602.830C807.724,602.841,807.441,602.672,807.064,602.270ZZ" style="fill: rgb(252, 194, 105);"/></g></g><g id="shape-41260768-a118-806d-8006-5946100db0de"><g class="fills" id="fills-41260768-a118-806d-8006-5946100db0de"><path d="M812.322,603.172C812.322,602.924,812.528,602.511,812.916,602.112C812.908,602.419,812.719,602.713,812.322,603.172ZZ" style="fill: rgb(252, 194, 105);"/></g></g></g></g></g></g></g></g></g></svg>